130227_FengardoRedux_Italic 2.ufo
<glyph name="numbersign" format="1">
  <advance width="594"/>
  <unicode hex="0023"/>
  <outline>
    <contour>
      <point x="292" y="0" type="line"/>
      <point x="353" y="0" type="line"/>
      <point x="402" y="183" type="line"/>
      <point x="532" y="183" type="line"/>
      <point x="546" y="236" type="line"/>
      <point x="418" y="236" type="line"/>
      <point x="455" y="376" type="line"/>
      <point x="582" y="376" type="line"/>
      <point x="594" y="429" type="line"/>
      <point x="468" y="429" type="line"/>
      <point x="517" y="600" type="line"/>
      <point x="456" y="600" type="line"/>
      <point x="407" y="429" type="line"/>
      <point x="272" y="429" type="line"/>
      <point x="322" y="600" type="line"/>
      <point x="260" y="600" type="line"/>
      <point x="211" y="429" type="line"/>
      <point x="77" y="429" type="line"/>
      <point x="65" y="376" type="line"/>
      <point x="197" y="376" type="line"/>
      <point x="159" y="236" type="line"/>
      <point x="29" y="236" type="line"/>
      <point x="15" y="183" type="line"/>
      <point x="144" y="183" type="line"/>
      <point x="95" y="0" type="line"/>
      <point x="156" y="0" type="line"/>
      <point x="206" y="183" type="line"/>
      <point x="341" y="183" type="line"/>
    </contour>
    <contour>
      <point x="259" y="376" type="line"/>
      <point x="393" y="376" type="line"/>
      <point x="356" y="236" type="line"/>
      <point x="221" y="236" type="line"/>
    </contour>
  </outline>
</glyph>
<glyph name="quotesingle" format="1">
  <advance width="162"/>
  <unicode hex="0027"/>
  <outline>
    <contour>
      <point x="152" y="547" type="line"/>
      <point x="152" y="547"/>
      <point x="183" y="657"/>
      <point x="192" y="707" type="curve" smooth="yes"/>
      <point x="198" y="740"/>
      <point x="183" y="757"/>
      <point x="160" y="757" type="curve" smooth="yes"/>
      <point x="136" y="757"/>
      <point x="118" y="742"/>
      <point x="115" y="710" type="curve" smooth="yes"/>
      <point x="111" y="654"/>
      <point x="103" y="547"/>
      <point x="103" y="547" type="curve"/>
    </contour>
  </outline>
</glyph>
<glyph name="parenleft" format="1">
  <advance width="324"/>
  <unicode hex="0028"/>
  <outline>
    <contour>
      <point x="339" y="755" type="line"/>
      <point x="175" y="603"/>
      <point x="85" y="423"/>
      <point x="85" y="221" type="curve" smooth="yes"/>
      <point x="85" y="98"/>
      <point x="119" y="-45"/>
      <point x="178" y="-153" type="curve"/>
      <point x="225" y="-128" type="line"/>
      <point x="174" y="-4"/>
      <point x="164" y="113"/>
      <point x="164" y="215" type="curve" smooth="yes"/>
      <point x="164" y="414"/>
      <point x="233" y="570"/>
      <point x="374" y="722" type="curve"/>
    </contour>
  </outline>
</glyph>
<glyph name="plus" format="1">
  <advance width="500"/>
  <unicode hex="002B"/>
  <outline>
    <contour>
      <point x="247" y="37" type="line"/>
      <point x="282" y="240" type="line"/>
      <point x="464" y="240" type="line"/>
      <point x="475" y="300" type="line"/>
      <point x="293" y="300" type="line"/>
      <point x="327" y="491" type="line"/>
      <point x="262" y="491" type="line"/>
      <point x="228" y="300" type="line"/>
      <point x="51" y="300" type="line"/>
      <point x="40" y="240" type="line"/>
      <point x="217" y="240" type="line"/>
      <point x="182" y="37" type="line"/>
    </contour>
  </outline>
</glyph>
<glyph name="period" format="1">
  <advance width="166"/>
  <unicode hex="002E"/>
  <outline>
    <contour>
      <point x="0" y="42" type="curve" smooth="yes"/>
      <point x="0" y="9"/>
      <point x="25" y="-15"/>
      <point x="58" y="-15" type="curve" smooth="yes"/>
      <point x="90" y="-15"/>
      <point x="116" y="9"/>
      <point x="116" y="42" type="curve" smooth="yes"/>
      <point x="116" y="74"/>
      <point x="90" y="100"/>
      <point x="58" y="100" type="curve" smooth="yes"/>
      <point x="25" y="100"/>
      <point x="0" y="74"/>
    </contour>
  </outline>
</glyph>
<glyph name="slash" format="1">
  <advance width="411"/>
  <unicode hex="002F"/>
  <outline>
    <contour>
      <point x="506" y="740" type="line"/>
      <point x="437" y="740" type="line"/>
      <point x="-60" y="-100" type="line"/>
      <point x="5" y="-100" type="line"/>
    </contour>
  </outline>
</glyph>
<glyph name="zero" format="1">
  <advance width="545"/>
  <unicode hex="0030"/>
  <outline>
    <contour>
      <point x="72" y="194" type="curve" smooth="yes"/>
      <point x="78" y="254"/>
      <point x="85" y="298"/>
      <point x="97" y="355" type="curve" smooth="yes"/>
      <point x="124" y="480"/>
      <point x="209" y="555"/>
      <point x="329" y="555" type="curve" smooth="yes"/>
      <point x="460" y="555"/>
      <point x="517" y="471"/>
      <point x="505" y="350" type="curve" smooth="yes"/>
      <point x="499" y="293"/>
      <point x="492" y="249"/>
      <point x="480" y="189" type="curve" smooth="yes"/>
      <point x="454" y="59"/>
      <point x="373" y="-15"/>
      <point x="250" y="-15" type="curve" smooth="yes"/>
      <point x="122" y="-15"/>
      <point x="60" y="71"/>
    </contour>
    <contour>
      <point x="259" y="55" type="curve" smooth="yes"/>
      <point x="332" y="55"/>
      <point x="377" y="102"/>
      <point x="395" y="189" type="curve" smooth="yes"/>
      <point x="407" y="247"/>
      <point x="415" y="298"/>
      <point x="420" y="350" type="curve" smooth="yes"/>
      <point x="428" y="427"/>
      <point x="397" y="485"/>
      <point x="321" y="485" type="curve" smooth="yes"/>
      <point x="247" y="485"/>
      <point x="199" y="440"/>
      <point x="182" y="355" type="curve" smooth="yes"/>
      <point x="172" y="303"/>
      <point x="163" y="251"/>
      <point x="157" y="193" type="curve" smooth="yes"/>
      <point x="148" y="110"/>
      <point x="189" y="55"/>
    </contour>
  </outline>
</glyph>
<glyph name="one" format="1">
  <advance width="397"/>
  <unicode hex="0031"/>
  <outline>
    <contour>
      <point x="213" y="458" type="line"/>
      <point x="152" y="68" type="line"/>
      <point x="54" y="60" type="line"/>
      <point x="45" y="0" type="line"/>
      <point x="320" y="0" type="line"/>
      <point x="329" y="60" type="line"/>
      <point x="237" y="68" type="line"/>
      <point x="312" y="541" type="line"/>
      <point x="281" y="545" type="line"/>
      <point x="123" y="505" type="line"/>
      <point x="123" y="455" type="line"/>
    </contour>
  </outline>
</glyph>
<glyph name="two" format="1">
  <advance width="508"/>
  <unicode hex="0032"/>
  <outline>
    <contour>
      <point x="43" y="0" type="line"/>
      <point x="436" y="0" type="line"/>
      <point x="447" y="70" type="line"/>
      <point x="163" y="70" type="line"/>
      <point x="202" y="95"/>
      <point x="246" y="124"/>
      <point x="295" y="161" type="curve" smooth="yes"/>
      <point x="392" y="234"/>
      <point x="464" y="300"/>
      <point x="464" y="400" type="curve" smooth="yes"/>
      <point x="464" y="494"/>
      <point x="395" y="555"/>
      <point x="295" y="555" type="curve" smooth="yes"/>
      <point x="180" y="555"/>
      <point x="93" y="479"/>
      <point x="80" y="363" type="curve"/>
      <point x="156" y="368" type="line"/>
      <point x="175" y="444"/>
      <point x="216" y="485"/>
      <point x="287" y="485" type="curve" smooth="yes"/>
      <point x="344" y="485"/>
      <point x="376" y="450"/>
      <point x="376" y="392" type="curve" smooth="yes"/>
      <point x="376" y="313"/>
      <point x="304" y="252"/>
      <point x="245" y="206" type="curve" smooth="yes"/>
      <point x="163" y="142"/>
      <point x="88" y="84"/>
      <point x="36" y="48" type="curve"/>
    </contour>
  </outline>
</glyph>
<glyph name="four" format="1">
  <advance width="567"/>
  <unicode hex="0034"/>
  <outline>
    <contour>
      <point x="368" y="295" type="line"/>
      <point x="332" y="70" type="line"/>
      <point x="139" y="70" type="line"/>
      <point x="425" y="586" type="line"/>
      <point x="425" y="586"/>
      <point x="335" y="564"/>
      <point x="335" y="564" type="curve"/>
      <point x="52" y="60" type="line"/>
      <point x="55" y="5" type="line"/>
      <point x="322" y="5" type="line"/>
      <point x="297" y="-150" type="line"/>
      <point x="377" y="-150" type="line"/>
      <point x="402" y="5" type="line"/>
      <point x="510" y="5" type="line"/>
      <point x="520" y="70" type="line"/>
      <point x="412" y="70" type="line"/>
      <point x="454" y="330" type="line"/>
    </contour>
  </outline>
</glyph>
<glyph name="five" format="1">
  <advance width="515"/>
  <unicode hex="0035"/>
  <outline>
    <contour>
      <point x="173" y="241" type="curve"/>
      <point x="237" y="470" type="line"/>
      <point x="476" y="470" type="line"/>
      <point x="487" y="540" type="line"/>
      <point x="178" y="540" type="line"/>
      <point x="81" y="174" type="line"/>
      <point x="147" y="169" type="line"/>
      <point x="147" y="169"/>
      <point x="182" y="215"/>
      <point x="258" y="215" type="curve" smooth="yes"/>
      <point x="325" y="215"/>
      <point x="363" y="177"/>
      <point x="363" y="95" type="curve" smooth="yes"/>
      <point x="363" y="-3"/>
      <point x="311" y="-90"/>
      <point x="212" y="-90" type="curve" smooth="yes"/>
      <point x="140" y="-90"/>
      <point x="97" y="-42"/>
      <point x="93" y="25" type="curve"/>
      <point x="18" y="20" type="line"/>
      <point x="22" y="-94"/>
      <point x="103" y="-160"/>
      <point x="209" y="-160" type="curve" smooth="yes"/>
      <point x="348" y="-160"/>
      <point x="448" y="-38"/>
      <point x="448" y="97" type="curve" smooth="yes"/>
      <point x="448" y="218"/>
      <point x="377" y="280"/>
      <point x="294" y="280" type="curve" smooth="yes"/>
      <point x="247" y="280"/>
      <point x="208" y="266"/>
    </contour>
  </outline>
</glyph>
<glyph name="seven" format="1">
  <advance width="482"/>
  <unicode hex="0037"/>
  <outline>
    <contour>
      <point x="499" y="540" type="line"/>
      <point x="80" y="540" type="line"/>
      <point x="68" y="470" type="line"/>
      <point x="411" y="470" type="line"/>
      <point x="29" y="-150" type="line"/>
      <point x="114" y="-150" type="line"/>
      <point x="509" y="491" type="line"/>
    </contour>
  </outline>
</glyph>
<glyph name="A" format="1">
  <advance width="619.0"/>
  <unicode hex="0041"/>
  <outline>
    <contour>
      <point x="140" y="185" type="line"/>
      <point x="506" y="185" type="line"/>
      <point x="506" y="185"/>
      <point x="488" y="260"/>
      <point x="487" y="260" type="curve" smooth="yes"/>
      <point x="179" y="260" type="line"/>
    </contour>
    <contour>
      <point x="362" y="700" type="line"/>
      <point x="13" y="0" type="line"/>
      <point x="97" y="0" type="line"/>
      <point x="392" y="612" type="line"/>
      <point x="406" y="700" type="line"/>
    </contour>
    <contour>
      <point x="379" y="612" type="line"/>
      <point x="491" y="0" type="line"/>
      <point x="582" y="0" type="line"/>
      <point x="440" y="700" type="line"/>
      <point x="345" y="700" type="line"/>
      <point x="360" y="630" type="line"/>
    </contour>
  </outline>
</glyph>
<glyph name="B" format="1">
  <advance width="556"/>
  <unicode hex="0042"/>
  <outline>
    <contour>
      <point x="63" y="0" type="line"/>
      <point x="266" y="0" type="line" smooth="yes"/>
      <point x="438" y="0"/>
      <point x="537" y="84"/>
      <point x="537" y="217" type="curve" smooth="yes"/>
      <point x="537" y="298"/>
      <point x="487" y="351"/>
      <point x="427" y="363" type="curve"/>
      <point x="428" y="366" type="line"/>
      <point x="500" y="380"/>
      <point x="577" y="432"/>
      <point x="577" y="538" type="curve" smooth="yes"/>
      <point x="577" y="645"/>
      <point x="498" y="700"/>
      <point x="372" y="700" type="curve" smooth="yes"/>
      <point x="168" y="700" type="line"/>
    </contour>
    <contour>
      <point x="198" y="325" type="line"/>
      <point x="315" y="325" type="line" smooth="yes"/>
      <point x="404" y="325"/>
      <point x="451" y="283"/>
      <point x="451" y="219" type="curve" smooth="yes"/>
      <point x="451" y="102"/>
      <point x="374" y="75"/>
      <point x="277" y="75" type="curve" smooth="yes"/>
      <point x="160" y="75" type="line"/>
    </contour>
    <contour>
      <point x="244" y="625" type="line"/>
      <point x="361" y="625" type="line" smooth="yes"/>
      <point x="442" y="625"/>
      <point x="488" y="590"/>
      <point x="488" y="525" type="curve" smooth="yes"/>
      <point x="488" y="415"/>
      <point x="419" y="395"/>
      <point x="326" y="395" type="curve" smooth="yes"/>
      <point x="209" y="395" type="line"/>
    </contour>
  </outline>
</glyph>
<glyph name="C" format="1">
  <advance width="557"/>
  <unicode hex="0043"/>
  <outline>
    <contour>
      <point x="563" y="500" type="line"/>
      <point x="567" y="508"/>
      <point x="570" y="524"/>
      <point x="570" y="539" type="curve" smooth="yes"/>
      <point x="570" y="630"/>
      <point x="508" y="715"/>
      <point x="387" y="715" type="curve" smooth="yes"/>
      <point x="242" y="715"/>
      <point x="142" y="637"/>
      <point x="110" y="482" type="curve" smooth="yes"/>
      <point x="95" y="402"/>
      <point x="85" y="327"/>
      <point x="74" y="241" type="curve" smooth="yes"/>
      <point x="56" y="85"/>
      <point x="132" y="-15"/>
      <point x="276" y="-15" type="curve" smooth="yes"/>
      <point x="424.152173913" y="-15.0"/>
      <point x="504" y="76"/>
      <point x="517" y="200" type="curve"/>
      <point x="442" y="200" type="line"/>
      <point x="426" y="104"/>
      <point x="377" y="60"/>
      <point x="287" y="60" type="curve" smooth="yes"/>
      <point x="190" y="60"/>
      <point x="147" y="127"/>
      <point x="160" y="242" type="curve" smooth="yes"/>
      <point x="171" y="331"/>
      <point x="184" y="409"/>
      <point x="197" y="480" type="curve" smooth="yes"/>
      <point x="218" y="595"/>
      <point x="279" y="640"/>
      <point x="375" y="640" type="curve" smooth="yes"/>
      <point x="454" y="640"/>
      <point x="491" y="595"/>
      <point x="491" y="524" type="curve" smooth="yes"/>
      <point x="491" y="516"/>
      <point x="490" y="508"/>
      <point x="488" y="500" type="curve"/>
    </contour>
  </outline>
</glyph>
<glyph name="D" format="1">
  <advance width="587"/>
  <unicode hex="0044"/>
  <outline>
    <contour>
      <point x="58" y="0" type="line"/>
      <point x="217" y="0" type="line" smooth="yes"/>
      <point x="363" y="0"/>
      <point x="504" y="28"/>
      <point x="544" y="230" type="curve" smooth="yes"/>
      <point x="560" y="315"/>
      <point x="571" y="382"/>
      <point x="577" y="450" type="curve" smooth="yes"/>
      <point x="597" y="648"/>
      <point x="468" y="700"/>
      <point x="322" y="700" type="curve" smooth="yes"/>
      <point x="164" y="700" type="line"/>
    </contour>
    <contour>
      <point x="491" y="459" type="curve" smooth="yes"/>
      <point x="484" y="384"/>
      <point x="474" y="314"/>
      <point x="457" y="231" type="curve" smooth="yes"/>
      <point x="430" y="103"/>
      <point x="347" y="75"/>
      <point x="227" y="75" type="curve" smooth="yes"/>
      <point x="155" y="75" type="line"/>
      <point x="240" y="625" type="line"/>
      <point x="312" y="625" type="line" smooth="yes"/>
      <point x="432" y="625"/>
      <point x="503" y="587"/>
    </contour>
  </outline>
</glyph>
<glyph name="G" format="1">
  <advance width="574"/>
  <unicode hex="0047"/>
  <outline>
    <contour>
      <point x="561" y="365" type="line"/>
      <point x="324" y="365" type="line"/>
      <point x="313" y="295" type="line"/>
      <point x="469" y="295" type="line"/>
      <point x="458" y="214" type="line" smooth="yes"/>
      <point x="444" y="105"/>
      <point x="384" y="59"/>
      <point x="286" y="59" type="curve" smooth="yes"/>
      <point x="189" y="59"/>
      <point x="147" y="124"/>
      <point x="161" y="239" type="curve" smooth="yes"/>
      <point x="171" y="328"/>
      <point x="185" y="406"/>
      <point x="197" y="477" type="curve" smooth="yes"/>
      <point x="218" y="592"/>
      <point x="279" y="640"/>
      <point x="375" y="640" type="curve" smooth="yes"/>
      <point x="470" y="640"/>
      <point x="505" y="594"/>
      <point x="491" y="495" type="curve"/>
      <point x="566" y="495" type="line"/>
      <point x="567" y="498"/>
      <point x="570" y="507"/>
      <point x="571" y="515" type="curve" smooth="yes"/>
      <point x="586" y="622"/>
      <point x="527" y="715"/>
      <point x="386" y="715" type="curve" smooth="yes"/>
      <point x="241" y="715"/>
      <point x="142" y="637"/>
      <point x="111" y="482" type="curve" smooth="yes"/>
      <point x="95" y="402"/>
      <point x="85" y="327"/>
      <point x="74" y="241" type="curve" smooth="yes"/>
      <point x="56" y="85"/>
      <point x="131" y="-15"/>
      <point x="275" y="-15" type="curve" smooth="yes"/>
      <point x="432" y="-15"/>
      <point x="521" y="74"/>
      <point x="540" y="212" type="curve" smooth="yes"/>
    </contour>
  </outline>
</glyph>
<glyph name="I" format="1">
  <advance width="271"/>
  <unicode hex="0049"/>
  <outline>
    <contour>
      <point x="256" y="700" type="line"/>
      <point x="171" y="700" type="line"/>
      <point x="60" y="0" type="line"/>
      <point x="145" y="0" type="line"/>
    </contour>
  </outline>
</glyph>
<glyph name="J" format="1">
  <advance width="485"/>
  <unicode hex="004A"/>
  <outline>
    <contour>
      <point x="395" y="700" type="line"/>
      <point x="395" y="700"/>
      <point x="327" y="257"/>
      <point x="313" y="183" type="curve" smooth="yes"/>
      <point x="297" y="96"/>
      <point x="257" y="55"/>
      <point x="196" y="55" type="curve" smooth="yes"/>
      <point x="120" y="55"/>
      <point x="87" y="118"/>
      <point x="93" y="190" type="curve"/>
      <point x="18" y="190" type="line"/>
      <point x="1" y="81"/>
      <point x="71" y="-15"/>
      <point x="195" y="-15" type="curve" smooth="yes"/>
      <point x="299" y="-15"/>
      <point x="372" y="47"/>
      <point x="396" y="171" type="curve" smooth="yes"/>
      <point x="413" y="259"/>
      <point x="480" y="700"/>
      <point x="480" y="700" type="curve"/>
    </contour>
  </outline>
</glyph>
<glyph name="M" format="1">
  <advance width="755"/>
  <unicode hex="004D"/>
  <outline>
    <contour>
      <point x="392" y="183" type="line"/>
      <point x="392" y="183"/>
      <point x="632" y="556"/>
      <point x="632" y="556" type="curve"/>
      <point x="634" y="556" type="line"/>
      <point x="620" y="485" type="line"/>
      <point x="544" y="0" type="line"/>
      <point x="629" y="0" type="line"/>
      <point x="740" y="700" type="line"/>
      <point x="640" y="700" type="line"/>
      <point x="640" y="700"/>
      <point x="382" y="288"/>
      <point x="382" y="288" type="curve"/>
      <point x="382" y="288"/>
      <point x="262" y="700"/>
      <point x="262" y="700" type="curve"/>
      <point x="171" y="700" type="line"/>
      <point x="60" y="0" type="line"/>
      <point x="140" y="0" type="line"/>
      <point x="216" y="484" type="line"/>
      <point x="224" y="569" type="line"/>
      <point x="225" y="569" type="line"/>
      <point x="225" y="569"/>
      <point x="340" y="183"/>
      <point x="340" y="183" type="curve"/>
    </contour>
  </outline>
</glyph>
<glyph name="N" format="1">
  <advance width="678"/>
  <unicode hex="004E"/>
  <outline>
    <contour>
      <point x="552" y="0" type="line"/>
      <point x="663" y="700" type="line"/>
      <point x="583" y="700" type="line"/>
      <point x="495" y="129" type="line"/>
      <point x="456" y="236" type="line"/>
      <point x="266" y="700" type="line"/>
      <point x="171" y="700" type="line"/>
      <point x="60" y="0" type="line"/>
      <point x="140" y="0" type="line"/>
      <point x="232" y="580" type="line"/>
      <point x="278" y="459" type="line"/>
      <point x="466" y="0" type="line"/>
    </contour>
  </outline>
</glyph>
<glyph name="O" format="1">
  <advance width="598"/>
  <unicode hex="004F"/>
  <outline>
    <contour>
      <point x="111" y="474" type="curve" smooth="yes"/>
      <point x="96" y="394"/>
      <point x="85" y="319"/>
      <point x="75" y="233" type="curve" smooth="yes"/>
      <point x="55.2947900391" y="71.209855058"/>
      <point x="131.0" y="-15.0"/>
      <point x="274" y="-15" type="curve" smooth="yes"/>
      <point x="417" y="-15"/>
      <point x="519" y="65"/>
      <point x="549" y="221" type="curve" smooth="yes"/>
      <point x="565" y="307"/>
      <point x="577" y="382"/>
      <point x="585" y="462" type="curve" smooth="yes"/>
      <point x="604" y="617"/>
      <point x="528" y="715"/>
      <point x="384" y="715" type="curve" smooth="yes"/>
      <point x="241.0" y="715.0"/>
      <point x="141.895935713" y="623.652188612"/>
    </contour>
    <contour>
      <point x="160" y="222" type="curve" smooth="yes"/>
      <point x="171" y="311"/>
      <point x="184" y="389"/>
      <point x="197" y="460" type="curve" smooth="yes"/>
      <point x="216" y="570"/>
      <point x="277" y="640"/>
      <point x="372" y="640" type="curve" smooth="yes"/>
      <point x="467" y="640"/>
      <point x="513" y="573"/>
      <point x="500" y="463" type="curve" smooth="yes"/>
      <point x="491" y="392"/>
      <point x="480" y="314"/>
      <point x="463" y="225" type="curve" smooth="yes"/>
      <point x="444" y="115"/>
      <point x="381" y="60"/>
      <point x="286" y="60" type="curve" smooth="yes"/>
      <point x="191" y="60"/>
      <point x="147" y="112"/>
    </contour>
  </outline>
</glyph>
<glyph name="P" format="1">
  <advance width="531"/>
  <unicode hex="0050"/>
  <outline>
    <contour>
      <point x="256" y="281" type="line"/>
      <point x="256" y="281"/>
      <point x="282" y="266"/>
      <point x="328" y="266" type="curve" smooth="yes"/>
      <point x="459" y="266"/>
      <point x="556" y="358"/>
      <point x="556" y="493" type="curve" smooth="yes"/>
      <point x="556" y="655"/>
      <point x="443" y="702"/>
      <point x="305" y="702" type="curve" smooth="yes"/>
      <point x="247" y="702"/>
      <point x="171" y="700"/>
      <point x="171" y="700" type="curve"/>
      <point x="60" y="0" type="line"/>
      <point x="145" y="0" type="line"/>
      <point x="244" y="630" type="line"/>
      <point x="244" y="630"/>
      <point x="266" y="632"/>
      <point x="299" y="632" type="curve" smooth="yes"/>
      <point x="397" y="632"/>
      <point x="471" y="599"/>
      <point x="471" y="493" type="curve" smooth="yes"/>
      <point x="471" y="388"/>
      <point x="399" y="331"/>
      <point x="309" y="331" type="curve" smooth="yes"/>
      <point x="296" y="331"/>
      <point x="265" y="331"/>
      <point x="265" y="331" type="curve"/>
    </contour>
  </outline>
</glyph>
<glyph name="Q" format="1">
  <advance width="608"/>
  <unicode hex="0051"/>
  <outline>
    <contour>
      <point x="603" y="-3" type="curve" smooth="yes"/>
      <point x="546" y="-3"/>
      <point x="510" y="81"/>
      <point x="443" y="163" type="curve" smooth="yes"/>
      <point x="380" y="241"/>
      <point x="330" y="301"/>
      <point x="239" y="301" type="curve" smooth="yes"/>
      <point x="145" y="301"/>
      <point x="75" y="254"/>
      <point x="75" y="151" type="curve" smooth="yes"/>
      <point x="75" y="45"/>
      <point x="159" y="-15"/>
      <point x="278" y="-15" type="curve" smooth="yes"/>
      <point x="429" y="-15"/>
      <point x="520" y="74"/>
      <point x="547" y="222" type="curve" smooth="yes"/>
      <point x="560" y="294"/>
      <point x="578" y="402"/>
      <point x="586" y="470" type="curve" smooth="yes"/>
      <point x="606" y="634"/>
      <point x="511" y="715"/>
      <point x="379" y="715" type="curve" smooth="yes"/>
      <point x="242" y="715"/>
      <point x="139" y="615"/>
      <point x="113" y="473" type="curve" smooth="yes"/>
      <point x="99" y="396"/>
      <point x="91.1527412678" y="351.167104786"/>
      <point x="93" y="329" type="curve"/>
      <point x="178" y="354" type="line"/>
      <point x="184" y="393"/>
      <point x="194" y="436"/>
      <point x="202" y="485" type="curve" smooth="yes"/>
      <point x="219.563250763" y="586.476559966"/>
      <point x="292.0" y="641.0"/>
      <point x="372" y="641" type="curve" smooth="yes"/>
      <point x="462.0" y="641.0"/>
      <point x="512.754935865" y="579.593915762"/>
      <point x="502" y="474" type="curve" smooth="yes"/>
      <point x="494" y="399"/>
      <point x="482" y="315"/>
      <point x="463" y="225" type="curve" smooth="yes"/>
      <point x="438.934998044" y="111.693949122"/>
      <point x="377.06097561" y="55.0"/>
      <point x="289" y="55" type="curve" smooth="yes"/>
      <point x="211" y="55"/>
      <point x="160" y="94"/>
      <point x="160" y="151" type="curve" smooth="yes"/>
      <point x="160" y="199"/>
      <point x="190" y="232"/>
      <point x="235" y="232" type="curve" smooth="yes"/>
      <point x="292" y="232"/>
      <point x="334" y="179"/>
      <point x="392" y="102" type="curve" smooth="yes"/>
      <point x="479" y="-14"/>
      <point x="513" y="-70"/>
      <point x="582" y="-70" type="curve" smooth="yes"/>
      <point x="614" y="-70"/>
      <point x="633" y="-45"/>
      <point x="633" y="-45" type="curve"/>
      <point x="633" y="0" type="line"/>
      <point x="627" y="-1"/>
      <point x="614" y="-3"/>
    </contour>
  </outline>
</glyph>
<glyph name="R" format="1">
  <advance width="584.0"/>
  <unicode hex="0052"/>
  <outline>
    <contour>
      <point x="147" y="0" type="line"/>
      <point x="191" y="285" type="line"/>
      <point x="334" y="285" type="line" smooth="yes"/>
      <point x="359" y="289" type="line"/>
      <point x="474" y="293"/>
      <point x="586" y="379"/>
      <point x="586" y="518" type="curve" smooth="yes"/>
      <point x="586" y="630"/>
      <point x="504" y="700"/>
      <point x="359" y="700" type="curve" smooth="yes"/>
      <point x="167" y="700" type="line"/>
      <point x="61" y="0" type="line"/>
    </contour>
    <contour>
      <point x="242" y="625" type="line"/>
      <point x="348" y="625" type="line" smooth="yes"/>
      <point x="448" y="625"/>
      <point x="499" y="585"/>
      <point x="499" y="511" type="curve" smooth="yes"/>
      <point x="499" y="416"/>
      <point x="437" y="355"/>
      <point x="304" y="355" type="curve" smooth="yes"/>
      <point x="201" y="355" type="line"/>
    </contour>
    <contour>
      <point x="311" y="319" type="line"/>
      <point x="441" y="0" type="line"/>
      <point x="536" y="0" type="line"/>
      <point x="401" y="319" type="line"/>
    </contour>
  </outline>
</glyph>
<glyph name="S" format="1">
  <advance width="557.0"/>
  <unicode hex="0053"/>
  <outline>
    <contour>
      <point x="275" y="-10" type="curve" smooth="yes"/>
      <point x="401.698795181" y="-10.0"/>
      <point x="514" y="58"/>
      <point x="514" y="208" type="curve" smooth="yes"/>
      <point x="514" y="293"/>
      <point x="454" y="347"/>
      <point x="341" y="392" type="curve" smooth="yes"/>
      <point x="231" y="436"/>
      <point x="192.0" y="473.6"/>
      <point x="192" y="528" type="curve" smooth="yes"/>
      <point x="192.0" y="620.0"/>
      <point x="268.470588235" y="645.0"/>
      <point x="348" y="645" type="curve" smooth="yes"/>
      <point x="456" y="645"/>
      <point x="478" y="589"/>
      <point x="467" y="505" type="curve"/>
      <point x="543" y="505" type="line"/>
      <point x="544" y="509"/>
      <point x="551" y="517"/>
      <point x="551" y="553" type="curve" smooth="yes"/>
      <point x="551.0" y="651.0"/>
      <point x="469.968586387" y="720.0"/>
      <point x="350" y="720" type="curve" smooth="yes"/>
      <point x="223.217391304" y="720.0"/>
      <point x="107.0" y="656.0"/>
      <point x="107" y="507" type="curve" smooth="yes"/>
      <point x="107.0" y="427.140540541"/>
      <point x="170" y="374"/>
      <point x="282" y="329" type="curve" smooth="yes"/>
      <point x="391" y="285"/>
      <point x="427.0" y="248.0"/>
      <point x="427" y="194" type="curve" smooth="yes"/>
      <point x="427.0" y="107.0"/>
      <point x="359.643835616" y="65.0"/>
      <point x="278" y="65" type="curve" smooth="yes"/>
      <point x="177" y="65"/>
      <point x="116" y="107"/>
      <point x="130" y="205" type="curve"/>
      <point x="55" y="205" type="line"/>
      <point x="54" y="201"/>
      <point x="47" y="193"/>
      <point x="47" y="162" type="curve" smooth="yes"/>
      <point x="47.0" y="54.0"/>
      <point x="148.449541284" y="-10.0"/>
    </contour>
  </outline>
</glyph>
<glyph name="T" format="1">
  <advance width="478"/>
  <unicode hex="0054"/>
  <outline>
    <contour>
      <point x="158" y="0" type="line"/>
      <point x="243" y="0" type="line"/>
      <point x="343" y="630" type="line"/>
      <point x="531" y="630" type="line"/>
      <point x="543" y="700" type="line"/>
      <point x="82" y="700" type="line"/>
      <point x="70" y="630" type="line"/>
      <point x="258" y="630" type="line"/>
    </contour>
  </outline>
</glyph>
<glyph name="U" format="1">
  <advance width="607"/>
  <unicode hex="0055"/>
  <outline>
    <contour>
      <point x="551" y="222" type="curve" smooth="yes"/>
      <point x="569" y="321"/>
      <point x="627" y="700"/>
      <point x="627" y="700" type="curve"/>
      <point x="542" y="700" type="line"/>
      <point x="542" y="700"/>
      <point x="481" y="305"/>
      <point x="466" y="223" type="curve" smooth="yes"/>
      <point x="444.226703765" y="105.226261273"/>
      <point x="386.0" y="57.0"/>
      <point x="307" y="57" type="curve" smooth="yes"/>
      <point x="207.0" y="57.0"/>
      <point x="159.133996042" y="121.102890501"/>
      <point x="172" y="227" type="curve" smooth="yes"/>
      <point x="183" y="317"/>
      <point x="246" y="700"/>
      <point x="246" y="700" type="curve"/>
      <point x="161" y="700" type="line"/>
      <point x="161" y="700"/>
      <point x="103" y="348"/>
      <point x="88" y="233" type="curve" smooth="yes"/>
      <point x="67.9831500592" y="80.87194045"/>
      <point x="161" y="-15"/>
      <point x="300" y="-15" type="curve" smooth="yes"/>
      <point x="452" y="-15"/>
      <point x="526" y="85"/>
    </contour>
  </outline>
</glyph>
<glyph name="V" format="1">
  <advance width="561.0"/>
  <unicode hex="0056"/>
  <outline>
    <contour>
      <point x="292" y="0" type="line"/>
      <point x="626" y="700" type="line"/>
      <point x="536" y="700" type="line"/>
      <point x="265" y="103" type="line"/>
      <point x="190" y="700" type="line"/>
      <point x="100" y="700" type="line"/>
      <point x="203" y="0" type="line"/>
    </contour>
  </outline>
</glyph>
<glyph name="Y" format="1">
  <advance width="491"/>
  <unicode hex="0059"/>
  <outline>
    <contour>
      <point x="306" y="280" type="line"/>
      <point x="586" y="700" type="line"/>
      <point x="491" y="700" type="line"/>
      <point x="274" y="361" type="line"/>
      <point x="160" y="700" type="line"/>
      <point x="70" y="700" type="line"/>
      <point x="221" y="280" type="line"/>
      <point x="174" y="0" type="line"/>
      <point x="259" y="0" type="line"/>
    </contour>
  </outline>
</glyph>
<glyph name="grave" format="1">
  <advance width="389"/>
  <unicode hex="0060"/>
  <outline>
    <contour>
      <point x="76" y="700" type="line"/>
      <point x="184" y="555" type="line"/>
      <point x="256" y="555" type="line"/>
      <point x="164" y="700" type="line"/>
    </contour>
  </outline>
</glyph>
<glyph name="a" format="1">
  <advance width="480"/>
  <unicode hex="0061"/>
  <outline>
    <contour>
      <point x="127" y="165" type="curve" smooth="yes"/>
      <point x="133" y="219"/>
      <point x="143" y="282"/>
      <point x="152" y="325" type="curve" smooth="yes"/>
      <point x="167" y="399"/>
      <point x="221" y="435"/>
      <point x="279" y="435" type="curve" smooth="yes"/>
      <point x="325" y="435"/>
      <point x="350" y="423"/>
      <point x="350" y="423" type="curve"/>
      <point x="303" y="129" type="line"/>
      <point x="293" y="93"/>
      <point x="259" y="50"/>
      <point x="203" y="50" type="curve" smooth="yes"/>
      <point x="150" y="50"/>
      <point x="118" y="82"/>
    </contour>
    <contour>
      <point x="302" y="64" type="curve"/>
      <point x="306" y="-20"/>
      <point x="399" y="-17"/>
      <point x="431" y="0" type="curve"/>
      <point x="440" y="55" type="line"/>
      <point x="394" y="55"/>
      <point x="373" y="61"/>
      <point x="380" y="107" type="curve" smooth="yes"/>
      <point x="436" y="457" type="line"/>
      <point x="400" y="485"/>
      <point x="347" y="500"/>
      <point x="289" y="500" type="curve" smooth="yes"/>
      <point x="186" y="500"/>
      <point x="99" y="455"/>
      <point x="72" y="325" type="curve" smooth="yes"/>
      <point x="62" y="277"/>
      <point x="52" y="216"/>
      <point x="47" y="165" type="curve" smooth="yes"/>
      <point x="35" y="38"/>
      <point x="100" y="-15"/>
      <point x="177" y="-15" type="curve" smooth="yes"/>
      <point x="268" y="-15"/>
      <point x="302" y="64"/>
    </contour>
  </outline>
</glyph>
<glyph name="b" format="1">
  <advance width="461"/>
  <unicode hex="0062"/>
  <outline>
    <contour>
      <point x="221" y="425" type="line"/>
      <point x="221" y="425"/>
      <point x="244" y="435"/>
      <point x="284" y="435" type="curve" smooth="yes"/>
      <point x="337" y="435"/>
      <point x="353" y="398"/>
      <point x="344" y="330" type="curve" smooth="yes"/>
      <point x="338" y="283"/>
      <point x="328" y="209"/>
      <point x="317" y="156" type="curve" smooth="yes"/>
      <point x="303" y="90"/>
      <point x="271" y="50"/>
      <point x="213" y="50" type="curve" smooth="yes"/>
      <point x="149" y="50"/>
      <point x="115" y="100"/>
      <point x="126" y="180" type="curve" smooth="yes"/>
      <point x="136" y="256"/>
      <point x="216" y="750"/>
      <point x="216" y="750" type="curve"/>
      <point x="133" y="725" type="line"/>
      <point x="133" y="725"/>
      <point x="66" y="314"/>
      <point x="49" y="195" type="curve" smooth="yes"/>
      <point x="27" y="44"/>
      <point x="121" y="-15"/>
      <point x="203" y="-15" type="curve" smooth="yes"/>
      <point x="314" y="-15"/>
      <point x="375" y="48"/>
      <point x="395" y="144" type="curve" smooth="yes"/>
      <point x="405" y="193"/>
      <point x="417" y="277"/>
      <point x="423" y="323" type="curve" smooth="yes"/>
      <point x="438" y="441"/>
      <point x="388" y="500"/>
      <point x="309" y="500" type="curve" smooth="yes"/>
      <point x="266" y="500"/>
      <point x="239" y="480"/>
      <point x="239" y="480" type="curve"/>
    </contour>
  </outline>
</glyph>
<glyph name="c" format="1">
  <advance width="478.0"/>
  <unicode hex="0063"/>
  <outline>
    <contour>
      <point x="218" y="-15" type="curve" smooth="yes"/>
      <point x="326" y="-15"/>
      <point x="400" y="37"/>
      <point x="412" y="122" type="curve" smooth="yes"/>
      <point x="414" y="133"/>
      <point x="413" y="155"/>
      <point x="411" y="160" type="curve"/>
      <point x="341" y="160" type="line"/>
      <point x="339" y="145" type="line" smooth="yes"/>
      <point x="333" y="90"/>
      <point x="294" y="55"/>
      <point x="228" y="55" type="curve" smooth="yes"/>
      <point x="160" y="55"/>
      <point x="140" y="96"/>
      <point x="147" y="163" type="curve" smooth="yes"/>
      <point x="154" y="218"/>
      <point x="163" y="278"/>
      <point x="172" y="328" type="curve" smooth="yes"/>
      <point x="186" y="395"/>
      <point x="218" y="430"/>
      <point x="286" y="430" type="curve" smooth="yes"/>
      <point x="348" y="430"/>
      <point x="377" y="395"/>
      <point x="368" y="335" type="curve" smooth="yes"/>
      <point x="366" y="325" type="line"/>
      <point x="436" y="325" type="line"/>
      <point x="439" y="329"/>
      <point x="441" y="335"/>
      <point x="442" y="340" type="curve" smooth="yes"/>
      <point x="457" y="435"/>
      <point x="405" y="500"/>
      <point x="296" y="500" type="curve" smooth="yes"/>
      <point x="187" y="500"/>
      <point x="113" y="449"/>
      <point x="91" y="337" type="curve" smooth="yes"/>
      <point x="81" y="288"/>
      <point x="73" y="228"/>
      <point x="66" y="173" type="curve" smooth="yes"/>
      <point x="53" y="62"/>
      <point x="108" y="-15"/>
    </contour>
  </outline>
</glyph>
<glyph name="d" format="1">
  <advance width="482"/>
  <unicode hex="0064"/>
  <outline>
    <contour>
      <point x="354" y="321" type="curve"/>
      <point x="324" y="134" type="line"/>
      <point x="308" y="83"/>
      <point x="267" y="50"/>
      <point x="221" y="50" type="curve" smooth="yes"/>
      <point x="142" y="50"/>
      <point x="119" y="89"/>
      <point x="127" y="175" type="curve" smooth="yes"/>
      <point x="131" y="218"/>
      <point x="146" y="291"/>
      <point x="154" y="334" type="curve" smooth="yes"/>
      <point x="169" y="412"/>
      <point x="217" y="435"/>
      <point x="270" y="435" type="curve" smooth="yes"/>
      <point x="327" y="435"/>
      <point x="362" y="398"/>
    </contour>
    <contour>
      <point x="321" y="66" type="curve"/>
      <point x="325" y="-18"/>
      <point x="410" y="-17"/>
      <point x="451" y="0" type="curve"/>
      <point x="459" y="55" type="line"/>
      <point x="413" y="55"/>
      <point x="393" y="62"/>
      <point x="400" y="107" type="curve" smooth="yes"/>
      <point x="502" y="750" type="line"/>
      <point x="418" y="725" type="line"/>
      <point x="371" y="429" type="line"/>
      <point x="356" y="475"/>
      <point x="305" y="500"/>
      <point x="256" y="500" type="curve" smooth="yes"/>
      <point x="169" y="500"/>
      <point x="96" y="455"/>
      <point x="75" y="342" type="curve" smooth="yes"/>
      <point x="66" y="291"/>
      <point x="55" y="236"/>
      <point x="48" y="184" type="curve" smooth="yes"/>
      <point x="31" y="41"/>
      <point x="108" y="-15"/>
      <point x="194" y="-15" type="curve" smooth="yes"/>
      <point x="254" y="-15"/>
      <point x="303" y="21"/>
    </contour>
  </outline>
</glyph>
<glyph name="e" format="1">
  <advance width="448"/>
  <unicode hex="0065"/>
  <outline>
    <contour>
      <point x="96" y="270" type="curve"/>
      <point x="87" y="216" type="line"/>
      <point x="164" y="224"/>
      <point x="240" y="230"/>
      <point x="316" y="244" type="curve" smooth="yes"/>
      <point x="390.038001118" y="258.199068707"/>
      <point x="419" y="274"/>
      <point x="419" y="350" type="curve" smooth="yes"/>
      <point x="419" y="425"/>
      <point x="376.708333333" y="501.0"/>
      <point x="274" y="501" type="curve" smooth="yes"/>
      <point x="159" y="501"/>
      <point x="94" y="449"/>
      <point x="63" y="311" type="curve" smooth="yes"/>
      <point x="53" y="267"/>
      <point x="47" y="222"/>
      <point x="43" y="178" type="curve" smooth="yes"/>
      <point x="34" y="84"/>
      <point x="79" y="-14"/>
      <point x="193" y="-14" type="curve" smooth="yes"/>
      <point x="292" y="-14"/>
      <point x="365" y="28"/>
      <point x="385" y="135" type="curve" smooth="yes"/>
      <point x="386" y="140"/>
      <point x="386" y="152"/>
      <point x="386" y="156" type="curve"/>
      <point x="316" y="156" type="line"/>
      <point x="315" y="151" type="line" smooth="yes"/>
      <point x="299" y="72"/>
      <point x="265" y="53"/>
      <point x="208" y="53" type="curve" smooth="yes"/>
      <point x="149" y="53"/>
      <point x="111" y="100"/>
      <point x="122" y="191" type="curve" smooth="yes"/>
      <point x="127" y="229"/>
      <point x="134" y="262"/>
      <point x="141" y="300" type="curve" smooth="yes"/>
      <point x="158" y="397"/>
      <point x="194" y="433"/>
      <point x="262" y="433" type="curve" smooth="yes"/>
      <point x="316.888888889" y="433.0"/>
      <point x="349.018007186" y="404.104769081"/>
      <point x="338" y="340" type="curve" smooth="yes"/>
      <point x="333.993649747" y="312.957135792"/>
      <point x="323.971990865" y="302.552928533"/>
      <point x="278" y="294" type="curve" smooth="yes"/>
      <point x="218" y="283"/>
      <point x="157" y="275"/>
    </contour>
  </outline>
</glyph>
<glyph name="g" format="1">
  <advance width="485"/>
  <unicode hex="0067"/>
  <outline>
    <contour>
      <point x="94" y="342" type="curve" smooth="yes"/>
      <point x="88" y="311"/>
      <point x="79" y="253"/>
      <point x="75" y="220" type="curve" smooth="yes"/>
      <point x="60" y="92"/>
      <point x="118" y="55"/>
      <point x="172" y="50" type="curve"/>
      <point x="197" y="51" type="line"/>
      <point x="198" y="49" type="line"/>
      <point x="153" y="33" type="line"/>
      <point x="153" y="33"/>
      <point x="121" y="17"/>
      <point x="83" y="-4" type="curve" smooth="yes"/>
      <point x="33" y="-32"/>
      <point x="0" y="-69"/>
      <point x="0" y="-128" type="curve" smooth="yes"/>
      <point x="0" y="-207"/>
      <point x="67" y="-260"/>
      <point x="159" y="-260" type="curve" smooth="yes"/>
      <point x="275" y="-260"/>
      <point x="348" y="-191"/>
      <point x="368" y="-65" type="curve" smooth="yes"/>
      <point x="386" y="46"/>
      <point x="450" y="456"/>
      <point x="450" y="456" type="curve"/>
      <point x="414" y="481"/>
      <point x="358" y="500"/>
      <point x="292" y="500" type="curve" smooth="yes"/>
      <point x="194" y="500"/>
      <point x="115" y="449"/>
    </contour>
    <contour>
      <point x="253" y="102" type="line"/>
      <point x="253" y="102"/>
      <point x="244" y="100"/>
      <point x="227" y="100" type="curve" smooth="yes"/>
      <point x="170" y="100"/>
      <point x="143" y="124"/>
      <point x="154" y="215" type="curve" smooth="yes"/>
      <point x="158" y="247"/>
      <point x="166" y="299"/>
      <point x="172" y="329" type="curve" smooth="yes"/>
      <point x="187" y="404"/>
      <point x="240" y="435"/>
      <point x="287" y="435" type="curve" smooth="yes"/>
      <point x="344" y="435"/>
      <point x="364" y="419"/>
      <point x="364" y="419" type="curve"/>
      <point x="332" y="219"/>
      <point x="304" y="26"/>
      <point x="288" y="-65" type="curve" smooth="yes"/>
      <point x="273" y="-151"/>
      <point x="230" y="-195"/>
      <point x="169" y="-195" type="curve" smooth="yes"/>
      <point x="111" y="-195"/>
      <point x="79" y="-163"/>
      <point x="79" y="-121" type="curve" smooth="yes"/>
      <point x="79" y="-80"/>
      <point x="92" y="-54"/>
      <point x="127" y="-32" type="curve" smooth="yes"/>
      <point x="164" y="-9"/>
      <point x="254" y="34"/>
      <point x="254" y="34" type="curve"/>
    </contour>
  </outline>
</glyph>
<glyph name="h" format="1">
  <advance width="503"/>
  <unicode hex="0068"/>
  <outline>
    <contour>
      <point x="229" y="750" type="line"/>
      <point x="145" y="725" type="line"/>
      <point x="30" y="0" type="line"/>
      <point x="110" y="0" type="line"/>
    </contour>
    <contour>
      <point x="158" y="304" type="line"/>
      <point x="173" y="393"/>
      <point x="219" y="435"/>
      <point x="284" y="435" type="curve" smooth="yes"/>
      <point x="336" y="435"/>
      <point x="364" y="400"/>
      <point x="351" y="317" type="curve" smooth="yes"/>
      <point x="319" y="114" type="line"/>
      <point x="298" y="-11"/>
      <point x="388" y="-24"/>
      <point x="448" y="0" type="curve"/>
      <point x="458" y="55" type="line"/>
      <point x="408" y="55"/>
      <point x="392" y="69"/>
      <point x="399" y="114" type="curve" smooth="yes"/>
      <point x="431" y="317" type="line" smooth="yes"/>
      <point x="450" y="438"/>
      <point x="390" y="500"/>
      <point x="309" y="500" type="curve" smooth="yes"/>
      <point x="218" y="500"/>
      <point x="180" y="435"/>
      <point x="177" y="431" type="curve"/>
    </contour>
  </outline>
</glyph>
<glyph name="j" format="1">
  <advance width="230"/>
  <unicode hex="006A"/>
  <outline>
    <contour>
      <point x="196" y="495" type="line"/>
      <point x="112" y="470" type="line"/>
      <point x="16" y="-139" type="line" smooth="yes"/>
      <point x="8" y="-189"/>
      <point x="-9" y="-196"/>
      <point x="-61" y="-195" type="curve"/>
      <point x="-70" y="-250" type="line"/>
      <point x="14" y="-275"/>
      <point x="78" y="-253"/>
      <point x="95" y="-145" type="curve" smooth="yes"/>
    </contour>
    <contour>
      <point x="130" y="660" type="curve" smooth="yes"/>
      <point x="130" y="628"/>
      <point x="153" y="605"/>
      <point x="184" y="605" type="curve" smooth="yes"/>
      <point x="216" y="605"/>
      <point x="240" y="628"/>
      <point x="240" y="660" type="curve" smooth="yes"/>
      <point x="240" y="691"/>
      <point x="216" y="715"/>
      <point x="184" y="715" type="curve" smooth="yes"/>
      <point x="153" y="715"/>
      <point x="130" y="691"/>
    </contour>
  </outline>
</glyph>
<glyph name="k" format="1">
  <advance width="465"/>
  <unicode hex="006B"/>
  <outline>
    <contour>
      <point x="229" y="750" type="line"/>
      <point x="145" y="725" type="line"/>
      <point x="30" y="0" type="line"/>
      <point x="110" y="0" type="line"/>
      <point x="160" y="315" type="line" smooth="yes"/>
      <point x="173" y="399"/>
      <point x="224" y="435"/>
      <point x="273" y="435" type="curve" smooth="yes"/>
      <point x="317" y="435"/>
      <point x="344" y="410"/>
      <point x="344" y="366" type="curve" smooth="yes"/>
      <point x="344" y="320"/>
      <point x="322" y="303"/>
      <point x="282" y="289" type="curve" smooth="yes"/>
      <point x="238" y="274"/>
      <point x="211" y="265"/>
      <point x="211" y="265" type="curve"/>
      <point x="201" y="232" type="line"/>
      <point x="219" y="191"/>
      <point x="273" y="93"/>
      <point x="304" y="40" type="curve" smooth="yes"/>
      <point x="338" y="-17"/>
      <point x="393" y="-19"/>
      <point x="432" y="0" type="curve"/>
      <point x="440" y="55" type="line"/>
      <point x="400" y="54"/>
      <point x="381" y="63"/>
      <point x="364" y="91" type="curve" smooth="yes"/>
      <point x="338" y="133"/>
      <point x="308" y="187"/>
      <point x="293" y="216" type="curve" smooth="yes"/>
      <point x="284" y="233"/>
      <point x="275" y="242"/>
      <point x="275" y="242" type="curve"/>
      <point x="275" y="243" type="line"/>
      <point x="275" y="243"/>
      <point x="300" y="251"/>
      <point x="341" y="263" type="curve" smooth="yes"/>
      <point x="406" y="282"/>
      <point x="423" y="310"/>
      <point x="423" y="374" type="curve" smooth="yes"/>
      <point x="423" y="454"/>
      <point x="370" y="500"/>
      <point x="304" y="500" type="curve" smooth="yes"/>
      <point x="253" y="500"/>
      <point x="201" y="463"/>
      <point x="177" y="426" type="curve"/>
    </contour>
  </outline>
</glyph>
<glyph name="n" format="1">
  <advance width="515.945572447"/>
  <unicode hex="006E"/>
  <outline>
    <contour>
      <point x="445" y="320" type="line"/>
      <point x="465" y="441"/>
      <point x="407" y="500"/>
      <point x="324" y="500" type="curve" smooth="yes"/>
      <point x="234" y="500"/>
      <point x="194" y="435"/>
      <point x="191" y="431" type="curve"/>
      <point x="183" y="479"/>
      <point x="147" y="490"/>
      <point x="113" y="490" type="curve" smooth="yes"/>
      <point x="96" y="490"/>
      <point x="76" y="485"/>
      <point x="66" y="480" type="curve"/>
      <point x="57" y="430" type="line"/>
      <point x="103" y="430"/>
      <point x="117" y="421"/>
      <point x="109" y="372" type="curve" smooth="yes"/>
      <point x="50" y="0" type="line"/>
      <point x="130" y="0" type="line"/>
      <point x="177" y="302" type="line" smooth="yes"/>
      <point x="191" y="393"/>
      <point x="236" y="435"/>
      <point x="299" y="435" type="curve" smooth="yes"/>
      <point x="349" y="435"/>
      <point x="379" y="402"/>
      <point x="365" y="320" type="curve" smooth="yes"/>
      <point x="331" y="110" type="line" smooth="yes"/>
      <point x="310" y="-14"/>
      <point x="401" y="-24"/>
      <point x="461" y="0" type="curve"/>
      <point x="471" y="55" type="line"/>
      <point x="421" y="55"/>
      <point x="404" y="66"/>
      <point x="411" y="110" type="curve" smooth="yes"/>
    </contour>
  </outline>
</glyph>
<glyph name="o" format="1">
  <advance width="482.0"/>
  <unicode hex="006F"/>
  <outline>
    <contour>
      <point x="430" y="176" type="curve" smooth="yes"/>
      <point x="438" y="219"/>
      <point x="445" y="263"/>
      <point x="450" y="305" type="curve" smooth="yes"/>
      <point x="464" y="418"/>
      <point x="403" y="500"/>
      <point x="280" y="500" type="curve" smooth="yes"/>
      <point x="171" y="500"/>
      <point x="93" y="442"/>
      <point x="70" y="322" type="curve" smooth="yes"/>
      <point x="64" y="291"/>
      <point x="55" y="236"/>
      <point x="49" y="187" type="curve" smooth="yes"/>
      <point x="35" y="74"/>
      <point x="94" y="-15"/>
      <point x="220" y="-15" type="curve" smooth="yes"/>
      <point x="341" y="-15"/>
      <point x="406" y="49"/>
    </contour>
    <contour>
      <point x="371" y="310" type="curve" smooth="yes"/>
      <point x="363" y="250"/>
      <point x="360" y="234"/>
      <point x="351" y="184" type="curve" smooth="yes"/>
      <point x="336" y="99"/>
      <point x="301" y="50"/>
      <point x="223" y="50" type="curve" smooth="yes"/>
      <point x="131" y="50"/>
      <point x="120" y="122"/>
      <point x="128" y="182" type="curve" smooth="yes"/>
      <point x="134" y="228"/>
      <point x="141" y="272"/>
      <point x="149" y="315" type="curve" smooth="yes"/>
      <point x="164" y="393"/>
      <point x="206" y="435"/>
      <point x="274" y="435" type="curve" smooth="yes"/>
      <point x="365" y="435"/>
      <point x="379" y="372"/>
    </contour>
  </outline>
</glyph>
<glyph name="p" format="1">
  <advance width="482"/>
  <unicode hex="0070"/>
  <outline>
    <contour>
      <point x="170" y="317" type="line"/>
      <point x="181" y="385"/>
      <point x="219" y="435"/>
      <point x="288" y="435" type="curve" smooth="yes"/>
      <point x="351" y="435"/>
      <point x="376" y="391"/>
      <point x="365" y="308" type="curve" smooth="yes"/>
      <point x="359" y="260"/>
      <point x="351" y="209"/>
      <point x="340" y="153" type="curve" smooth="yes"/>
      <point x="325" y="76"/>
      <point x="294" y="50"/>
      <point x="242" y="50" type="curve" smooth="yes"/>
      <point x="177" y="50"/>
      <point x="137" y="103"/>
      <point x="149" y="182" type="curve" smooth="yes"/>
    </contour>
    <contour>
      <point x="47" y="430" type="line"/>
      <point x="93" y="430"/>
      <point x="107" y="421"/>
      <point x="99" y="372" type="curve" smooth="yes"/>
      <point x="0" y="-250" type="line"/>
      <point x="79" y="-250" type="line"/>
      <point x="131" y="71" type="line"/>
      <point x="147" y="26"/>
      <point x="190" y="-15"/>
      <point x="255" y="-15" type="curve" smooth="yes"/>
      <point x="331" y="-15"/>
      <point x="395" y="30"/>
      <point x="419" y="148" type="curve" smooth="yes"/>
      <point x="429" y="197"/>
      <point x="438" y="252"/>
      <point x="444" y="303" type="curve" smooth="yes"/>
      <point x="457" y="413"/>
      <point x="408" y="500"/>
      <point x="305" y="500" type="curve" smooth="yes"/>
      <point x="246" y="500"/>
      <point x="201" y="461"/>
      <point x="180" y="424" type="curve"/>
      <point x="173" y="474"/>
      <point x="138" y="490"/>
      <point x="106" y="490" type="curve" smooth="yes"/>
      <point x="87" y="490"/>
      <point x="68" y="485"/>
      <point x="56" y="480" type="curve"/>
    </contour>
  </outline>
</glyph>
<glyph name="q" format="1">
  <advance width="475"/>
  <unicode hex="0071"/>
  <outline>
    <contour>
      <point x="237" y="60" type="line"/>
      <point x="225" y="54"/>
      <point x="213" y="50"/>
      <point x="192" y="50" type="curve" smooth="yes"/>
      <point x="146" y="50"/>
      <point x="116" y="75"/>
      <point x="127" y="164" type="curve" smooth="yes"/>
      <point x="133" y="214"/>
      <point x="142" y="270"/>
      <point x="150" y="312" type="curve" smooth="yes"/>
      <point x="165" y="389"/>
      <point x="208" y="435"/>
      <point x="281" y="435" type="curve" smooth="yes"/>
      <point x="330" y="435"/>
      <point x="355" y="422"/>
      <point x="355" y="422" type="curve"/>
      <point x="248" y="-250" type="line"/>
      <point x="328" y="-250" type="line"/>
      <point x="440" y="454" type="line"/>
      <point x="405" y="480"/>
      <point x="354" y="500"/>
      <point x="290" y="500" type="curve" smooth="yes"/>
      <point x="175" y="500"/>
      <point x="97" y="447"/>
      <point x="71" y="317" type="curve" smooth="yes"/>
      <point x="63" y="276"/>
      <point x="54" y="220"/>
      <point x="48" y="171" type="curve" smooth="yes"/>
      <point x="32" y="45"/>
      <point x="87" y="-15"/>
      <point x="170" y="-15" type="curve" smooth="yes"/>
      <point x="213" y="-15"/>
      <point x="236" y="1"/>
      <point x="236" y="1" type="curve"/>
    </contour>
  </outline>
</glyph>
<glyph name="r" format="1">
  <advance width="377.0"/>
  <unicode hex="0072"/>
  <outline>
    <contour>
      <point x="312" y="500" type="curve" smooth="yes"/>
      <point x="263" y="500"/>
      <point x="227" y="473"/>
      <point x="204" y="431" type="curve"/>
      <point x="199" y="468"/>
      <point x="177" y="490"/>
      <point x="141" y="490" type="curve" smooth="yes"/>
      <point x="124" y="490"/>
      <point x="99" y="487"/>
      <point x="85" y="480" type="curve"/>
      <point x="76" y="420" type="line"/>
      <point x="86" y="420" type="line" smooth="yes"/>
      <point x="114" y="420"/>
      <point x="137" y="415"/>
      <point x="128" y="360" type="curve" smooth="yes"/>
      <point x="70" y="0" type="line"/>
      <point x="150" y="0" type="line"/>
      <point x="199" y="312" type="line" smooth="yes"/>
      <point x="212" y="399"/>
      <point x="239" y="430"/>
      <point x="277" y="430" type="curve" smooth="yes"/>
      <point x="309" y="430"/>
      <point x="321" y="412"/>
      <point x="313" y="363" type="curve" smooth="yes"/>
      <point x="312" y="353" type="line"/>
      <point x="381" y="353" type="line"/>
      <point x="387" y="363"/>
      <point x="393" y="385"/>
      <point x="393" y="409" type="curve" smooth="yes"/>
      <point x="393" y="470"/>
      <point x="373.0" y="500.0"/>
    </contour>
  </outline>
</glyph>
<glyph name="s" format="1">
  <advance width="430"/>
  <unicode hex="0073"/>
  <outline>
    <contour>
      <point x="383" y="339" type="line"/>
      <point x="387" y="345"/>
      <point x="388" y="354"/>
      <point x="388" y="364" type="curve" smooth="yes"/>
      <point x="390.999740926" y="441.993264084"/>
      <point x="348.430656934" y="500.0"/>
      <point x="249" y="500" type="curve" smooth="yes"/>
      <point x="135.306818182" y="500.0"/>
      <point x="75.0" y="443.0"/>
      <point x="75" y="363" type="curve" smooth="yes"/>
      <point x="75.0" y="298.0"/>
      <point x="114.564310151" y="251.760168186"/>
      <point x="194" y="218" type="curve" smooth="yes"/>
      <point x="268" y="187"/>
      <point x="290" y="155"/>
      <point x="290" y="118" type="curve" smooth="yes"/>
      <point x="290.0" y="81.0"/>
      <point x="264.506024096" y="51.0"/>
      <point x="198" y="51" type="curve" smooth="yes"/>
      <point x="145.294117647" y="51.0"/>
      <point x="102" y="85.0"/>
      <point x="102" y="148" type="curve" smooth="yes"/>
      <point x="102" y="158" type="line"/>
      <point x="35" y="158" type="line"/>
      <point x="33" y="144"/>
      <point x="33" y="134"/>
      <point x="33" y="119" type="curve" smooth="yes"/>
      <point x="33.0" y="48.0"/>
      <point x="96.8630136986" y="-17.0"/>
      <point x="181" y="-17" type="curve" smooth="yes"/>
      <point x="303.687830688" y="-17.0"/>
      <point x="368.0" y="42.0"/>
      <point x="368" y="124" type="curve" smooth="yes"/>
      <point x="368" y="188"/>
      <point x="331" y="242"/>
      <point x="246" y="278" type="curve" smooth="yes"/>
      <point x="174.954083844" y="307.365645345"/>
      <point x="155.0" y="335.0"/>
      <point x="155" y="370" type="curve" smooth="yes"/>
      <point x="155.0" y="403.0"/>
      <point x="186.974358974" y="434.0"/>
      <point x="241" y="434" type="curve" smooth="yes"/>
      <point x="294.571428571" y="434.0"/>
      <point x="317.99978791" y="406.993849387"/>
      <point x="316" y="349" type="curve"/>
      <point x="314" y="339" type="line"/>
    </contour>
  </outline>
</glyph>
<glyph name="t" format="1">
  <advance width="308"/>
  <unicode hex="0074"/>
  <outline>
    <contour>
      <point x="272" y="55" type="line"/>
      <point x="250" y="51"/>
      <point x="226" y="49"/>
      <point x="204" y="49" type="curve" smooth="yes"/>
      <point x="160" y="49"/>
      <point x="138" y="70"/>
      <point x="149" y="140" type="curve" smooth="yes"/>
      <point x="195" y="430" type="line"/>
      <point x="309" y="430" type="line"/>
      <point x="318" y="485" type="line"/>
      <point x="204" y="485" type="line"/>
      <point x="226" y="625" type="line"/>
      <point x="142" y="600" type="line"/>
      <point x="124" y="485" type="line"/>
      <point x="54" y="485" type="line"/>
      <point x="45" y="430" type="line"/>
      <point x="115" y="430" type="line"/>
      <point x="69" y="140" type="line" smooth="yes"/>
      <point x="52" y="32"/>
      <point x="108" y="-15"/>
      <point x="179" y="-15" type="curve" smooth="yes"/>
      <point x="239" y="-15"/>
      <point x="264" y="0"/>
      <point x="264" y="0" type="curve"/>
    </contour>
  </outline>
</glyph>
<glyph name="u" format="1">
  <advance width="495"/>
  <unicode hex="0075"/>
  <outline>
    <contour>
      <point x="442" y="495" type="line"/>
      <point x="358" y="470" type="line"/>
      <point x="302" y="128" type="line"/>
      <point x="286" y="85"/>
      <point x="248" y="50"/>
      <point x="200" y="50" type="curve" smooth="yes"/>
      <point x="152" y="50"/>
      <point x="121" y="84"/>
      <point x="132" y="171" type="curve" smooth="yes"/>
      <point x="141" y="240"/>
      <point x="184" y="495"/>
      <point x="184" y="495" type="curve"/>
      <point x="100" y="470" type="line"/>
      <point x="100" y="470"/>
      <point x="64" y="265"/>
      <point x="53" y="176" type="curve" smooth="yes"/>
      <point x="36" y="43"/>
      <point x="95" y="-15"/>
      <point x="175" y="-15" type="curve" smooth="yes"/>
      <point x="237" y="-15"/>
      <point x="277" y="18"/>
      <point x="300" y="64" type="curve"/>
      <point x="304.000081016" y="-14.0015798075"/>
      <point x="391.772208882" y="-22.1284975538"/>
      <point x="431" y="0" type="curve"/>
      <point x="439" y="61" type="line"/>
      <point x="393" y="61"/>
      <point x="372" y="67"/>
      <point x="380" y="114" type="curve" smooth="yes"/>
    </contour>
  </outline>
</glyph>
<glyph name="v" format="1">
  <advance width="433"/>
  <unicode hex="0076"/>
  <outline>
    <contour>
      <point x="126" y="0" type="line"/>
      <point x="220" y="0" type="line"/>
      <point x="448" y="485" type="line"/>
      <point x="365" y="485" type="line"/>
      <point x="187" y="82" type="line"/>
      <point x="135" y="485" type="line"/>
      <point x="50" y="485" type="line"/>
    </contour>
  </outline>
</glyph>
<glyph name="w" format="1">
  <advance width="676"/>
  <unicode hex="0077"/>
  <outline>
    <contour>
      <point x="115" y="0" type="line"/>
      <point x="205" y="0" type="line"/>
      <point x="355" y="379" type="line"/>
      <point x="382" y="0" type="line"/>
      <point x="471" y="0" type="line"/>
      <point x="686" y="485" type="line"/>
      <point x="606" y="485" type="line"/>
      <point x="559" y="373"/>
      <point x="443" y="90"/>
      <point x="443" y="90" type="curve"/>
      <point x="414" y="485" type="line"/>
      <point x="330" y="485" type="line"/>
      <point x="288" y="383"/>
      <point x="174" y="95"/>
      <point x="174" y="95" type="curve"/>
      <point x="140" y="485" type="line"/>
      <point x="55" y="485" type="line"/>
    </contour>
  </outline>
</glyph>
<glyph name="x" format="1">
  <advance width="437"/>
  <unicode hex="0078"/>
  <outline>
    <contour>
      <point x="149" y="485" type="line"/>
      <point x="59" y="485" type="line"/>
      <point x="178" y="257" type="line"/>
      <point x="-20" y="0" type="line"/>
      <point x="69" y="0" type="line"/>
      <point x="214" y="191" type="line"/>
      <point x="307" y="0" type="line"/>
      <point x="397" y="0" type="line"/>
      <point x="270" y="245" type="line"/>
      <point x="452" y="485" type="line"/>
      <point x="362" y="485" type="line"/>
      <point x="233" y="311" type="line"/>
    </contour>
  </outline>
</glyph>
<glyph name="y" format="1">
  <advance width="486"/>
  <unicode hex="0079"/>
  <outline>
    <contour>
      <point x="253" y="102" type="line"/>
      <point x="253" y="102"/>
      <point x="244" y="100"/>
      <point x="227" y="100" type="curve" smooth="yes"/>
      <point x="175" y="100"/>
      <point x="145" y="124"/>
      <point x="159" y="215" type="curve" smooth="yes"/>
      <point x="203" y="495" type="line"/>
      <point x="120" y="470" type="line"/>
      <point x="80" y="220" type="line" smooth="yes"/>
      <point x="60" y="93"/>
      <point x="121" y="55"/>
      <point x="172" y="50" type="curve"/>
      <point x="197" y="51" type="line"/>
      <point x="197" y="51"/>
      <point x="198" y="49"/>
      <point x="198" y="49" type="curve"/>
      <point x="153" y="33" type="line"/>
      <point x="153" y="33"/>
      <point x="122" y="18"/>
      <point x="83" y="-4" type="curve" smooth="yes"/>
      <point x="32" y="-33"/>
      <point x="0" y="-69"/>
      <point x="0" y="-128" type="curve" smooth="yes"/>
      <point x="0" y="-207"/>
      <point x="65" y="-260"/>
      <point x="157" y="-260" type="curve" smooth="yes"/>
      <point x="273" y="-260"/>
      <point x="348" y="-191"/>
      <point x="368" y="-65" type="curve" smooth="yes"/>
      <point x="386" y="46"/>
      <point x="456" y="495"/>
      <point x="456" y="495" type="curve"/>
      <point x="456" y="495"/>
      <point x="374" y="470"/>
      <point x="373" y="469" type="curve"/>
      <point x="341" y="269"/>
      <point x="304" y="26"/>
      <point x="288" y="-65" type="curve" smooth="yes"/>
      <point x="273" y="-151"/>
      <point x="227" y="-195"/>
      <point x="166" y="-195" type="curve" smooth="yes"/>
      <point x="108" y="-195"/>
      <point x="79" y="-163"/>
      <point x="79" y="-121" type="curve" smooth="yes"/>
      <point x="79" y="-80"/>
      <point x="95" y="-54"/>
      <point x="127" y="-33" type="curve" smooth="yes"/>
      <point x="169" y="-6"/>
      <point x="254" y="39"/>
      <point x="254" y="39" type="curve"/>
    </contour>
  </outline>
</glyph>
<glyph name="braceleft" format="1">
  <advance width="336"/>
  <unicode hex="007B"/>
  <outline>
    <contour>
      <point x="181" y="422" type="line"/>
      <point x="170" y="358"/>
      <point x="137" y="351"/>
      <point x="89" y="337" type="curve"/>
      <point x="80" y="289" type="line"/>
      <point x="120" y="280"/>
      <point x="150" y="250"/>
      <point x="139" y="186" type="curve" smooth="yes"/>
      <point x="99" y="-36" type="line" smooth="yes"/>
      <point x="85" y="-116"/>
      <point x="147" y="-154"/>
      <point x="228" y="-134" type="curve"/>
      <point x="236" y="-91" type="line"/>
      <point x="193" y="-96"/>
      <point x="158" y="-78"/>
      <point x="165" y="-33" type="curve" smooth="yes"/>
      <point x="202" y="175" type="line" smooth="yes"/>
      <point x="214" y="245"/>
      <point x="204" y="299"/>
      <point x="138" y="310" type="curve"/>
      <point x="208" y="319"/>
      <point x="234" y="356"/>
      <point x="244" y="411" type="curve" smooth="yes"/>
      <point x="286" y="645" type="line" smooth="yes"/>
      <point x="294" y="690"/>
      <point x="337" y="691"/>
      <point x="373" y="686" type="curve"/>
      <point x="381" y="733" type="line"/>
      <point x="313" y="753"/>
      <point x="236" y="732"/>
      <point x="222" y="652" type="curve" smooth="yes"/>
    </contour>
  </outline>
</glyph>
<glyph name="bar" format="1">
  <advance width="254"/>
  <unicode hex="007C"/>
  <outline>
    <contour>
      <point x="244" y="740" type="line"/>
      <point x="186" y="740" type="line"/>
      <point x="10" y="-260" type="line"/>
      <point x="68" y="-260" type="line"/>
    </contour>
  </outline>
</glyph>
<glyph name="asciitilde" format="1">
  <advance width="412"/>
  <unicode hex="007E"/>
  <outline>
    <contour>
      <point x="277" y="222" type="curve" smooth="yes"/>
      <point x="339" y="222"/>
      <point x="371" y="252"/>
      <point x="359" y="314" type="curve"/>
      <point x="313" y="324" type="line"/>
      <point x="313" y="298"/>
      <point x="303" y="280"/>
      <point x="283" y="280" type="curve" smooth="yes"/>
      <point x="248" y="280"/>
      <point x="187" y="309"/>
      <point x="138" y="309" type="curve" smooth="yes"/>
      <point x="77" y="309"/>
      <point x="41" y="273"/>
      <point x="52" y="217" type="curve"/>
      <point x="100" y="207" type="line"/>
      <point x="99" y="237"/>
      <point x="114" y="248"/>
      <point x="137" y="248" type="curve" smooth="yes"/>
      <point x="171" y="248"/>
      <point x="231" y="222"/>
    </contour>
  </outline>
</glyph>
<glyph name="yen" format="1">
  <advance width="529"/>
  <unicode hex="00A5"/>
  <outline>
    <contour>
      <point x="80" y="298" type="line"/>
      <point x="69" y="238" type="line"/>
      <point x="459" y="238" type="line"/>
      <point x="470" y="298" type="line"/>
    </contour>
    <contour>
      <point x="438" y="118" type="line"/>
      <point x="449" y="178" type="line"/>
      <point x="59" y="178" type="line"/>
      <point x="48" y="118" type="line"/>
    </contour>
    <component base="Y" xOffset="12"/>
  </outline>
</glyph>
<glyph name="section" format="1">
  <advance width="437"/>
  <unicode hex="00A7"/>
  <outline>
    <contour>
      <point x="435" y="535" type="line"/>
      <point x="447" y="626"/>
      <point x="366" y="670"/>
      <point x="288" y="670" type="curve" smooth="yes"/>
      <point x="202" y="670"/>
      <point x="136" y="617"/>
      <point x="135" y="528" type="curve" smooth="yes"/>
      <point x="132" y="389"/>
      <point x="329" y="383"/>
      <point x="329" y="290" type="curve" smooth="yes"/>
      <point x="329" y="245"/>
      <point x="292" y="212"/>
      <point x="245" y="203" type="curve" smooth="yes"/>
      <point x="198" y="194"/>
      <point x="158" y="251"/>
      <point x="157" y="305" type="curve"/>
      <point x="83" y="305" type="line"/>
      <point x="81" y="209"/>
      <point x="168" y="170"/>
      <point x="249" y="170" type="curve" smooth="yes"/>
      <point x="332" y="170"/>
      <point x="404" y="219"/>
      <point x="405" y="294" type="curve" smooth="yes"/>
      <point x="407" y="435"/>
      <point x="207" y="438"/>
      <point x="209" y="539" type="curve" smooth="yes"/>
      <point x="210" y="588"/>
      <point x="247" y="615"/>
      <point x="286" y="615" type="curve" smooth="yes"/>
      <point x="326" y="615"/>
      <point x="363" y="587"/>
      <point x="360" y="535" type="curve"/>
    </contour>
    <contour>
      <point x="383" y="305" type="line"/>
      <point x="395" y="396"/>
      <point x="314" y="435"/>
      <point x="236" y="435" type="curve" smooth="yes"/>
      <point x="150" y="435"/>
      <point x="84" y="387"/>
      <point x="83" y="298" type="curve"/>
      <point x="80" y="159"/>
      <point x="279" y="153"/>
      <point x="277" y="60" type="curve"/>
      <point x="277" y="20"/>
      <point x="249" y="-10"/>
      <point x="201" y="-10" type="curve" smooth="yes"/>
      <point x="153" y="-10"/>
      <point x="106" y="21"/>
      <point x="105" y="75" type="curve"/>
      <point x="31" y="75" type="line"/>
      <point x="29" y="-21"/>
      <point x="116" y="-65"/>
      <point x="197" y="-65" type="curve" smooth="yes"/>
      <point x="280" y="-65"/>
      <point x="352" y="-16"/>
      <point x="353" y="64" type="curve" smooth="yes"/>
      <point x="356" y="205"/>
      <point x="157" y="191"/>
      <point x="157" y="309" type="curve" smooth="yes"/>
      <point x="157" y="358"/>
      <point x="189" y="388"/>
      <point x="227" y="397" type="curve" smooth="yes"/>
      <point x="266" y="406"/>
      <point x="343" y="357"/>
      <point x="340" y="305" type="curve"/>
    </contour>
  </outline>
</glyph>
<glyph name="dieresis" format="1">
  <advance width="458"/>
  <unicode hex="00A8"/>
  <outline>
    <contour>
      <point x="99" y="659" type="curve" smooth="yes"/>
      <point x="99" y="629"/>
      <point x="120" y="610"/>
      <point x="148" y="610" type="curve" smooth="yes"/>
      <point x="179" y="610"/>
      <point x="203" y="635"/>
      <point x="203" y="665" type="curve" smooth="yes"/>
      <point x="203" y="695"/>
      <point x="184" y="715"/>
      <point x="154" y="715" type="curve" smooth="yes"/>
      <point x="125" y="715"/>
      <point x="99" y="689"/>
    </contour>
    <contour>
      <point x="265" y="659" type="curve" smooth="yes"/>
      <point x="265" y="629"/>
      <point x="283" y="610"/>
      <point x="311" y="610" type="curve" smooth="yes"/>
      <point x="342" y="610"/>
      <point x="367" y="635"/>
      <point x="367" y="665" type="curve" smooth="yes"/>
      <point x="367" y="695"/>
      <point x="347" y="715"/>
      <point x="317" y="715" type="curve" smooth="yes"/>
      <point x="288" y="715"/>
      <point x="265" y="689"/>
    </contour>
  </outline>
</glyph>
<glyph name="copyright" format="1">
  <advance width="864"/>
  <unicode hex="00A9"/>
  <outline>
    <contour>
      <point x="85" y="328" type="curve" smooth="yes"/>
      <point x="85" y="125"/>
      <point x="249" y="-39"/>
      <point x="452" y="-39" type="curve" smooth="yes"/>
      <point x="655" y="-39"/>
      <point x="819" y="125"/>
      <point x="819" y="328" type="curve" smooth="yes"/>
      <point x="819" y="531"/>
      <point x="655" y="695"/>
      <point x="452" y="695" type="curve" smooth="yes"/>
      <point x="249" y="695"/>
      <point x="85" y="531"/>
    </contour>
    <contour>
      <point x="143" y="328" type="curve" smooth="yes"/>
      <point x="143" y="502"/>
      <point x="278" y="645"/>
      <point x="452" y="645" type="curve" smooth="yes"/>
      <point x="626" y="645"/>
      <point x="760" y="502"/>
      <point x="760" y="328" type="curve" smooth="yes"/>
      <point x="760" y="154"/>
      <point x="626" y="11"/>
      <point x="452" y="11" type="curve" smooth="yes"/>
      <point x="278" y="11"/>
      <point x="143" y="154"/>
    </contour>
    <contour>
      <point x="604" y="424" type="line"/>
      <point x="599" y="509"/>
      <point x="528" y="549"/>
      <point x="451" y="549" type="curve" smooth="yes"/>
      <point x="371" y="549"/>
      <point x="300" y="498"/>
      <point x="295" y="402" type="curve" smooth="yes"/>
      <point x="293" y="361"/>
      <point x="293" y="294"/>
      <point x="295" y="248" type="curve" smooth="yes"/>
      <point x="299" y="153"/>
      <point x="371" y="106"/>
      <point x="448" y="106" type="curve" smooth="yes"/>
      <point x="530" y="106"/>
      <point x="595" y="143"/>
      <point x="609" y="226" type="curve"/>
      <point x="543" y="226" type="line"/>
      <point x="535" y="173"/>
      <point x="495" y="160"/>
      <point x="455" y="160" type="curve" smooth="yes"/>
      <point x="404" y="160"/>
      <point x="363" y="189"/>
      <point x="360" y="252" type="curve" smooth="yes"/>
      <point x="358" y="308"/>
      <point x="357" y="352"/>
      <point x="360" y="398" type="curve" smooth="yes"/>
      <point x="363" y="459"/>
      <point x="405" y="494"/>
      <point x="453" y="494" type="curve" smooth="yes"/>
      <point x="493" y="494"/>
      <point x="532" y="477"/>
      <point x="538" y="424" type="curve"/>
    </contour>
  </outline>
</glyph>
<glyph name="ordfeminine" format="1">
  <advance width="360"/>
  <unicode hex="00AA"/>
  <outline>
    <contour>
      <point x="45" y="178" type="line"/>
      <point x="315" y="178" type="line"/>
      <point x="323" y="225" type="line"/>
      <point x="53" y="225" type="line"/>
    </contour>
    <contour>
      <point x="148" y="420" type="curve" smooth="yes"/>
      <point x="153" y="456"/>
      <point x="159" y="491"/>
      <point x="167" y="524" type="curve" smooth="yes"/>
      <point x="178" y="569"/>
      <point x="203" y="590"/>
      <point x="237" y="590" type="curve" smooth="yes"/>
      <point x="252" y="590"/>
      <point x="268" y="586"/>
      <point x="285" y="578" type="curve"/>
      <point x="253" y="396" type="line"/>
      <point x="238" y="365"/>
      <point x="212" y="350"/>
      <point x="190" y="350" type="curve" smooth="yes"/>
      <point x="163" y="350"/>
      <point x="142" y="373"/>
    </contour>
    <contour>
      <point x="350" y="603" type="line"/>
      <point x="318" y="623"/>
      <point x="280" y="635"/>
      <point x="243" y="635" type="curve" smooth="yes"/>
      <point x="182" y="635"/>
      <point x="125" y="603"/>
      <point x="107" y="526" type="curve" smooth="yes"/>
      <point x="98" y="487"/>
      <point x="92" y="456"/>
      <point x="88" y="418" type="curve" smooth="yes"/>
      <point x="80" y="339"/>
      <point x="124" y="305"/>
      <point x="170" y="305" type="curve" smooth="yes"/>
      <point x="203" y="305"/>
      <point x="233" y="321"/>
      <point x="248" y="350" type="curve"/>
      <point x="255" y="295"/>
      <point x="318" y="303"/>
      <point x="339" y="318" type="curve"/>
      <point x="345" y="348" type="line"/>
      <point x="313" y="348"/>
      <point x="305" y="352"/>
      <point x="310" y="381" type="curve" smooth="yes"/>
    </contour>
  </outline>
</glyph>
<glyph name="macron" format="1">
  <advance width="473"/>
  <unicode hex="00AF"/>
  <outline>
    <contour>
      <point x="105" y="579" type="line"/>
      <point x="357" y="579" type="line"/>
      <point x="368" y="640" type="line"/>
      <point x="116" y="640" type="line"/>
    </contour>
  </outline>
</glyph>
<glyph name="degree" format="1">
  <advance width="286"/>
  <unicode hex="00B0"/>
  <outline>
    <contour>
      <point x="95" y="547" type="curve" smooth="yes"/>
      <point x="95" y="490"/>
      <point x="141" y="444"/>
      <point x="198" y="444" type="curve" smooth="yes"/>
      <point x="255" y="444"/>
      <point x="301" y="490"/>
      <point x="301" y="547" type="curve" smooth="yes"/>
      <point x="301" y="604"/>
      <point x="255" y="650"/>
      <point x="198" y="650" type="curve" smooth="yes"/>
      <point x="141" y="650"/>
      <point x="95" y="604"/>
    </contour>
    <contour>
      <point x="143" y="547" type="curve" smooth="yes"/>
      <point x="143" y="580"/>
      <point x="165" y="607"/>
      <point x="198" y="607" type="curve" smooth="yes"/>
      <point x="231" y="607"/>
      <point x="253" y="580"/>
      <point x="253" y="547" type="curve" smooth="yes"/>
      <point x="253" y="514"/>
      <point x="231" y="487"/>
      <point x="198" y="487" type="curve" smooth="yes"/>
      <point x="165" y="487"/>
      <point x="143" y="514"/>
    </contour>
  </outline>
</glyph>
<glyph name="plusminus" format="1">
  <advance width="520"/>
  <unicode hex="00B1"/>
  <outline>
    <contour>
      <point x="50" y="0" type="line"/>
      <point x="386" y="0" type="line"/>
      <point x="396" y="60" type="line"/>
      <point x="260" y="60" type="line"/>
      <point x="295" y="260" type="line"/>
      <point x="479" y="260" type="line"/>
      <point x="490" y="320" type="line"/>
      <point x="306" y="320" type="line"/>
      <point x="340" y="511" type="line"/>
      <point x="272" y="511" type="line"/>
      <point x="238" y="320" type="line"/>
      <point x="61" y="320" type="line"/>
      <point x="50" y="260" type="line"/>
      <point x="227" y="260" type="line"/>
      <point x="192" y="60" type="line"/>
      <point x="60" y="60" type="line"/>
    </contour>
  </outline>
</glyph>
<glyph name="acute" format="1">
  <advance width="396"/>
  <unicode hex="00B4"/>
  <outline>
    <contour>
      <point x="341" y="700" type="line"/>
      <point x="198" y="555" type="line"/>
      <point x="123" y="555" type="line"/>
      <point x="246" y="700" type="line"/>
    </contour>
  </outline>
</glyph>
<glyph name="mu" format="1">
  <advance width="490"/>
  <unicode hex="00B5"/>
  <unicode hex="03BC"/>
  <outline>
    <contour>
      <point x="-30" y="-280" type="line"/>
      <point x="45" y="-280" type="line"/>
      <point x="95" y="13" type="line"/>
      <point x="105" y="-2"/>
      <point x="137" y="-15"/>
      <point x="163" y="-15" type="curve" smooth="yes"/>
      <point x="252" y="-15"/>
      <point x="299" y="59"/>
      <point x="299" y="59" type="curve"/>
      <point x="303" y="-26"/>
      <point x="390" y="-17"/>
      <point x="420" y="5" type="curve"/>
      <point x="427" y="50" type="line"/>
      <point x="382" y="50"/>
      <point x="364" y="57"/>
      <point x="372" y="101" type="curve" smooth="yes"/>
      <point x="438" y="480" type="line"/>
      <point x="357" y="443" type="line"/>
      <point x="301" y="129" type="line"/>
      <point x="301" y="129"/>
      <point x="270" y="40"/>
      <point x="182" y="40" type="curve" smooth="yes"/>
      <point x="136" y="40"/>
      <point x="111" y="77"/>
      <point x="120" y="134" type="curve" smooth="yes"/>
      <point x="133" y="219"/>
      <point x="181" y="480"/>
      <point x="181" y="480" type="curve"/>
      <point x="99" y="443" type="line"/>
    </contour>
  </outline>
</glyph>
<glyph name="paragraph" format="1">
  <advance width="548"/>
  <unicode hex="00B6"/>
  <outline>
    <contour>
      <point x="55" y="-20" type="curve" smooth="yes"/>
      <point x="55" y="-72"/>
      <point x="94" y="-100"/>
      <point x="138" y="-100" type="curve" smooth="yes"/>
      <point x="191" y="-100"/>
      <point x="239" y="-63"/>
      <point x="253" y="9" type="curve" smooth="yes"/>
      <point x="270" y="97"/>
      <point x="375" y="660"/>
      <point x="375" y="660" type="curve"/>
      <point x="196" y="673"/>
      <point x="116" y="568"/>
      <point x="114" y="470" type="curve" smooth="yes"/>
      <point x="113" y="387"/>
      <point x="166" y="309"/>
      <point x="262" y="309" type="curve"/>
      <point x="262" y="309"/>
      <point x="218" y="74"/>
      <point x="202" y="-2" type="curve" smooth="yes"/>
      <point x="194" y="-39"/>
      <point x="172" y="-61"/>
      <point x="143" y="-61" type="curve" smooth="yes"/>
      <point x="120" y="-61"/>
      <point x="101" y="-46"/>
      <point x="102" y="-18" type="curve" smooth="yes"/>
      <point x="102" y="10"/>
      <point x="123" y="35"/>
      <point x="168" y="30" type="curve"/>
      <point x="174" y="70" type="line"/>
      <point x="95" y="81"/>
      <point x="55" y="28"/>
    </contour>
    <contour>
      <point x="365" y="199" type="line"/>
      <point x="347" y="98"/>
      <point x="310" y="69"/>
      <point x="249" y="63" type="curve"/>
      <point x="248" y="64"/>
      <point x="235" y="24"/>
      <point x="235" y="24" type="curve"/>
      <point x="336" y="24"/>
      <point x="395" y="89"/>
      <point x="415" y="204" type="curve" smooth="yes"/>
      <point x="488" y="613" type="line"/>
      <point x="544" y="613" type="line"/>
      <point x="553" y="660" type="line"/>
      <point x="553" y="660"/>
      <point x="510" y="660"/>
      <point x="448" y="660" type="curve"/>
    </contour>
  </outline>
</glyph>
<glyph name="cedilla" format="1">
  <advance width="374"/>
  <unicode hex="00B8"/>
  <outline>
    <contour>
      <point x="92" y="-139" type="line"/>
      <point x="92" y="-195"/>
      <point x="140" y="-225"/>
      <point x="181" y="-225" type="curve" smooth="yes"/>
      <point x="237" y="-225"/>
      <point x="268" y="-185"/>
      <point x="268" y="-139" type="curve" smooth="yes"/>
      <point x="268" y="-90"/>
      <point x="237" y="-51"/>
      <point x="190" y="-47" type="curve"/>
      <point x="180" y="-98" type="line"/>
      <point x="202" y="-100"/>
      <point x="213" y="-115"/>
      <point x="213" y="-139" type="curve" smooth="yes"/>
      <point x="213" y="-164"/>
      <point x="198" y="-175"/>
      <point x="181" y="-175" type="curve" smooth="yes"/>
      <point x="164" y="-175"/>
      <point x="147" y="-162"/>
      <point x="147" y="-139" type="curve"/>
    </contour>
  </outline>
</glyph>
<glyph name="AE" format="1">
  <advance width="799"/>
  <unicode hex="00C6"/>
  <outline>
    <contour>
      <point x="493" y="609" type="line"/>
      <point x="437" y="301" type="line"/>
      <point x="276" y="301" type="line"/>
    </contour>
    <contour>
      <point x="743" y="365" type="line"/>
      <point x="527" y="365" type="line"/>
      <point x="568" y="595" type="line"/>
      <point x="818" y="595" type="line"/>
      <point x="829" y="660" type="line"/>
      <point x="450" y="660" type="line"/>
      <point x="-25" y="0" type="line"/>
      <point x="64" y="0" type="line"/>
      <point x="230" y="236" type="line"/>
      <point x="426" y="236" type="line"/>
      <point x="384" y="0" type="line"/>
      <point x="723" y="0" type="line"/>
      <point x="734" y="65" type="line"/>
      <point x="475" y="65" type="line"/>
      <point x="516" y="300" type="line"/>
      <point x="732" y="300" type="line"/>
    </contour>
  </outline>
</glyph>
<glyph name="multiply" format="1">
  <advance width="618"/>
  <unicode hex="00D7"/>
  <outline>
    <contour>
      <point x="515" y="456" type="line"/>
      <point x="317" y="288" type="line"/>
      <point x="183" y="455" type="line"/>
      <point x="131" y="409" type="line"/>
      <point x="266" y="244" type="line"/>
      <point x="70" y="78" type="line"/>
      <point x="109" y="30" type="line"/>
      <point x="304" y="196" type="line"/>
      <point x="444" y="29" type="line"/>
      <point x="494" y="73" type="line"/>
      <point x="357" y="241" type="line"/>
      <point x="553" y="407" type="line"/>
    </contour>
  </outline>
</glyph>
<glyph name="Oslash" format="1">
  <advance width="591"/>
  <unicode hex="00D8"/>
  <outline>
    <contour>
      <point x="611" y="675" type="line"/>
      <point x="611" y="675"/>
      <point x="556" y="675"/>
      <point x="556" y="675" type="curve"/>
      <point x="40" y="-15" type="line"/>
      <point x="40" y="-15"/>
      <point x="95" y="-15"/>
      <point x="95" y="-15" type="curve"/>
    </contour>
    <component base="O" xOffset="4"/>
  </outline>
</glyph>
<glyph name="oslash" format="1">
  <advance width="477"/>
  <unicode hex="00F8"/>
  <outline>
    <contour>
      <point x="492" y="500" type="line"/>
      <point x="437" y="500" type="line"/>
      <point x="10" y="-15" type="line"/>
      <point x="10" y="-15"/>
      <point x="65" y="-15"/>
      <point x="65" y="-15" type="curve"/>
    </contour>
    <component base="o" xOffset="7"/>
  </outline>
</glyph>
<glyph name="florin" format="1">
  <advance width="431"/>
  <unicode hex="0192"/>
  <outline>
    <contour>
      <point x="226" y="566" type="line"/>
      <point x="239" y="646"/>
      <point x="272" y="680"/>
      <point x="322" y="680" type="curve" smooth="yes"/>
      <point x="359" y="680"/>
      <point x="385" y="665"/>
      <point x="385" y="665" type="curve"/>
      <point x="411" y="719" type="line"/>
      <point x="411" y="719"/>
      <point x="377" y="750"/>
      <point x="322" y="750" type="curve" smooth="yes"/>
      <point x="250" y="750"/>
      <point x="170" y="709"/>
      <point x="146" y="562" type="curve" smooth="yes"/>
      <point x="39" y="-81" type="line" smooth="yes"/>
      <point x="26" y="-161"/>
      <point x="-4" y="-190"/>
      <point x="-56" y="-190" type="curve" smooth="yes"/>
      <point x="-93" y="-190"/>
      <point x="-119" y="-174"/>
      <point x="-119" y="-174" type="curve"/>
      <point x="-145" y="-228" type="line"/>
      <point x="-145" y="-228"/>
      <point x="-102" y="-260"/>
      <point x="-46" y="-260" type="curve" smooth="yes"/>
      <point x="21" y="-260"/>
      <point x="94" y="-229"/>
      <point x="119" y="-77" type="curve" smooth="yes"/>
    </contour>
    <contour>
      <point x="322" y="430" type="line"/>
      <point x="332" y="485" type="line"/>
      <point x="60" y="485" type="line"/>
      <point x="51" y="430" type="line"/>
    </contour>
  </outline>
</glyph>
<glyph name="caron" format="1">
  <advance width="466"/>
  <unicode hex="02C7"/>
  <outline>
    <contour>
      <point x="176" y="545" type="line"/>
      <point x="88" y="700" type="line"/>
      <point x="161" y="700" type="line"/>
      <point x="213" y="601" type="line"/>
      <point x="299" y="700" type="line"/>
      <point x="380" y="700" type="line"/>
      <point x="232" y="545" type="line"/>
    </contour>
  </outline>
</glyph>
<glyph name="dotaccent" format="1">
  <advance width="294"/>
  <unicode hex="02D9"/>
  <outline>
    <contour>
      <point x="75" y="659" type="curve" smooth="yes"/>
      <point x="75" y="625"/>
      <point x="99" y="601"/>
      <point x="131" y="601" type="curve" smooth="yes"/>
      <point x="165" y="601"/>
      <point x="189" y="625"/>
      <point x="189" y="659" type="curve" smooth="yes"/>
      <point x="189" y="691"/>
      <point x="165" y="715"/>
      <point x="131" y="715" type="curve" smooth="yes"/>
      <point x="99" y="715"/>
      <point x="75" y="691"/>
    </contour>
  </outline>
</glyph>
<glyph name="ogonek" format="1">
  <advance width="452"/>
  <unicode hex="02DB"/>
  <outline>
    <contour>
      <point x="338" y="50" type="line"/>
      <point x="334" y="50"/>
      <point x="251" y="5"/>
      <point x="179" y="-45" type="curve" smooth="yes"/>
      <point x="120" y="-86"/>
      <point x="79" y="-127"/>
      <point x="79" y="-187" type="curve" smooth="yes"/>
      <point x="79" y="-259"/>
      <point x="159" y="-269"/>
      <point x="215" y="-250" type="curve"/>
      <point x="225" y="-196" type="line"/>
      <point x="188" y="-196"/>
      <point x="168" y="-185"/>
      <point x="168" y="-157" type="curve" smooth="yes"/>
      <point x="168" y="-121"/>
      <point x="195" y="-98"/>
      <point x="215" y="-82" type="curve" smooth="yes"/>
      <point x="259" y="-47"/>
      <point x="330" y="0"/>
      <point x="330" y="0" type="curve"/>
    </contour>
  </outline>
</glyph>
<glyph name="endash" format="1">
  <advance width="532"/>
  <unicode hex="2013"/>
  <outline>
    <contour>
      <point x="40" y="240" type="line"/>
      <point x="497" y="240" type="line"/>
      <point x="507" y="300" type="line"/>
      <point x="50" y="300" type="line"/>
    </contour>
  </outline>
</glyph>
<glyph name="daggerdbl" format="1">
  <advance width="434"/>
  <unicode hex="2021"/>
  <outline>
    <contour>
      <point x="169" y="90" type="line"/>
      <point x="139" y="97"/>
      <point x="87" y="100"/>
      <point x="60" y="100" type="curve" smooth="yes"/>
      <point x="27" y="100"/>
      <point x="10" y="85"/>
      <point x="10" y="68" type="curve" smooth="yes"/>
      <point x="10" y="52"/>
      <point x="26" y="37"/>
      <point x="59" y="37" type="curve" smooth="yes"/>
      <point x="89" y="37"/>
      <point x="130" y="41"/>
      <point x="163" y="47" type="curve"/>
      <point x="149" y="17"/>
      <point x="131" y="-68"/>
      <point x="126" y="-104" type="curve" smooth="yes"/>
      <point x="121" y="-137"/>
      <point x="137" y="-155"/>
      <point x="155" y="-155" type="curve" smooth="yes"/>
      <point x="172" y="-155"/>
      <point x="192" y="-138"/>
      <point x="198" y="-104" type="curve" smooth="yes"/>
      <point x="204" y="-69"/>
      <point x="216" y="17"/>
      <point x="213" y="47" type="curve"/>
      <point x="242" y="41"/>
      <point x="292" y="37"/>
      <point x="323" y="37" type="curve" smooth="yes"/>
      <point x="358" y="37"/>
      <point x="376" y="53"/>
      <point x="376" y="70" type="curve" smooth="yes"/>
      <point x="376" y="86"/>
      <point x="360" y="100"/>
      <point x="329" y="100" type="curve" smooth="yes"/>
      <point x="302" y="100"/>
      <point x="256" y="97"/>
      <point x="224" y="91" type="curve"/>
      <point x="242" y="260" type="line"/>
      <point x="284" y="435" type="line"/>
      <point x="314" y="429"/>
      <point x="364" y="426"/>
      <point x="391" y="426" type="curve" smooth="yes"/>
      <point x="426" y="426"/>
      <point x="444" y="442"/>
      <point x="444" y="459" type="curve" smooth="yes"/>
      <point x="444" y="475"/>
      <point x="429" y="489"/>
      <point x="398" y="489" type="curve" smooth="yes"/>
      <point x="367" y="489"/>
      <point x="320" y="485"/>
      <point x="289" y="479" type="curve"/>
      <point x="303" y="509"/>
      <point x="323" y="594"/>
      <point x="328" y="630" type="curve" smooth="yes"/>
      <point x="333" y="664"/>
      <point x="320" y="680"/>
      <point x="302" y="680" type="curve" smooth="yes"/>
      <point x="284" y="680"/>
      <point x="262" y="663"/>
      <point x="256" y="630" type="curve" smooth="yes"/>
      <point x="249" y="594"/>
      <point x="236" y="509"/>
      <point x="239" y="479" type="curve"/>
      <point x="208" y="485"/>
      <point x="159" y="489"/>
      <point x="129" y="489" type="curve" smooth="yes"/>
      <point x="95" y="489"/>
      <point x="78" y="475"/>
      <point x="78" y="458" type="curve" smooth="yes"/>
      <point x="78" y="441"/>
      <point x="95" y="426"/>
      <point x="127" y="426" type="curve" smooth="yes"/>
      <point x="154" y="426"/>
      <point x="197" y="429"/>
      <point x="230" y="436" type="curve"/>
      <point x="209" y="260" type="line"/>
    </contour>
  </outline>
</glyph>
<glyph name="bullet" format="1">
  <advance width="310"/>
  <unicode hex="2022"/>
  <outline>
    <contour>
      <point x="83" y="265" type="curve" smooth="yes"/>
      <point x="81" y="224"/>
      <point x="111" y="192"/>
      <point x="152" y="192" type="curve" smooth="yes"/>
      <point x="194" y="192"/>
      <point x="229" y="224"/>
      <point x="231" y="265" type="curve" smooth="yes"/>
      <point x="234" y="307"/>
      <point x="203" y="340"/>
      <point x="161" y="340" type="curve" smooth="yes"/>
      <point x="120" y="340"/>
      <point x="86" y="307"/>
    </contour>
  </outline>
</glyph>
<glyph name="guilsinglleft" format="1">
  <advance width="295"/>
  <unicode hex="2039"/>
  <outline>
    <contour>
      <point x="142" y="243" type="line"/>
      <point x="289" y="365" type="line"/>
      <point x="257" y="410" type="line"/>
      <point x="57" y="250" type="line"/>
      <point x="57" y="243" type="line"/>
      <point x="200" y="85" type="line"/>
      <point x="244" y="124" type="line"/>
    </contour>
  </outline>
</glyph>
<glyph name="guilsinglright" format="1">
  <advance width="299"/>
  <unicode hex="203A"/>
  <outline>
    <contour>
      <point x="173" y="249" type="line"/>
      <point x="25" y="126" type="line"/>
      <point x="56" y="84" type="line"/>
      <point x="256" y="244" type="line"/>
      <point x="256" y="251" type="line"/>
      <point x="112" y="409" type="line"/>
      <point x="69" y="371" type="line"/>
    </contour>
  </outline>
</glyph>
<glyph name="minussuperior" format="1">
  <advance width="330"/>
  <unicode hex="207B"/>
  <outline>
    <contour>
      <point x="316" y="467" type="line"/>
      <point x="325" y="512" type="line"/>
      <point x="114" y="512" type="line"/>
      <point x="105" y="467" type="line"/>
    </contour>
  </outline>
</glyph>
<glyph name="infinity" format="1">
  <advance width="762"/>
  <unicode hex="221E"/>
  <outline>
    <contour>
      <point x="455" y="280" type="line"/>
      <point x="492" y="317"/>
      <point x="524" y="340"/>
      <point x="567" y="340" type="curve" smooth="yes"/>
      <point x="611" y="340"/>
      <point x="632" y="299"/>
      <point x="632" y="258" type="curve" smooth="yes"/>
      <point x="632" y="197"/>
      <point x="595" y="160"/>
      <point x="546" y="160" type="curve" smooth="yes"/>
      <point x="500" y="160"/>
      <point x="453" y="226"/>
      <point x="408" y="280" type="curve" smooth="yes"/>
      <point x="343" y="358"/>
      <point x="306" y="400"/>
      <point x="218" y="400" type="curve" smooth="yes"/>
      <point x="114" y="400"/>
      <point x="55" y="319"/>
      <point x="55" y="231" type="curve" smooth="yes"/>
      <point x="55" y="158"/>
      <point x="98" y="100"/>
      <point x="189" y="100" type="curve" smooth="yes"/>
      <point x="275" y="100"/>
      <point x="332" y="185"/>
      <point x="332" y="185" type="curve"/>
      <point x="309" y="223" type="line"/>
      <point x="309" y="223"/>
      <point x="265" y="160"/>
      <point x="195" y="160" type="curve" smooth="yes"/>
      <point x="151" y="160"/>
      <point x="130" y="196"/>
      <point x="130" y="237" type="curve" smooth="yes"/>
      <point x="131" y="290"/>
      <point x="162" y="340"/>
      <point x="216" y="340" type="curve" smooth="yes"/>
      <point x="267" y="340"/>
      <point x="298" y="297"/>
      <point x="348" y="233" type="curve" smooth="yes"/>
      <point x="409" y="155"/>
      <point x="452" y="100"/>
      <point x="544" y="100" type="curve" smooth="yes"/>
      <point x="659" y="100"/>
      <point x="707" y="180"/>
      <point x="707" y="262" type="curve" smooth="yes"/>
      <point x="707" y="339"/>
      <point x="665" y="400"/>
      <point x="578" y="400" type="curve" smooth="yes"/>
      <point x="487" y="400"/>
      <point x="428" y="320"/>
      <point x="428" y="320" type="curve"/>
    </contour>
  </outline>
</glyph>
<glyph name="fi" format="1">
  <advance width="506"/>
  <unicode hex="FB01"/>
  <outline>
    <contour>
      <point x="59" y="485" type="line"/>
      <point x="50" y="430" type="line"/>
      <point x="366" y="430" type="line"/>
      <point x="314" y="100" type="line" smooth="yes"/>
      <point x="295" y="-19"/>
      <point x="390" y="-20"/>
      <point x="445" y="0" type="curve"/>
      <point x="453" y="55" type="line"/>
      <point x="403" y="55"/>
      <point x="388" y="62"/>
      <point x="395" y="107" type="curve" smooth="yes"/>
      <point x="455" y="485" type="line"/>
    </contour>
    <contour>
      <point x="216" y="551" type="curve" smooth="yes"/>
      <point x="230" y="633"/>
      <point x="265" y="690"/>
      <point x="337" y="690" type="curve" smooth="yes"/>
      <point x="367" y="690"/>
      <point x="379" y="679"/>
      <point x="379" y="679" type="curve"/>
      <point x="373" y="673"/>
      <point x="366" y="657"/>
      <point x="366" y="645" type="curve" smooth="yes"/>
      <point x="366" y="614"/>
      <point x="386" y="592"/>
      <point x="417" y="592" type="curve" smooth="yes"/>
      <point x="447" y="592"/>
      <point x="471" y="616"/>
      <point x="471" y="647" type="curve" smooth="yes"/>
      <point x="471" y="712"/>
      <point x="405" y="750"/>
      <point x="338" y="750" type="curve" smooth="yes"/>
      <point x="225" y="750"/>
      <point x="155" y="665"/>
      <point x="137" y="557" type="curve" smooth="yes"/>
      <point x="115" y="427"/>
      <point x="75" y="63"/>
      <point x="50" y="-71" type="curve" smooth="yes"/>
      <point x="35" y="-152"/>
      <point x="6" y="-195"/>
      <point x="-51" y="-195" type="curve" smooth="yes"/>
      <point x="-89" y="-195"/>
      <point x="-115" y="-179"/>
      <point x="-115" y="-179" type="curve"/>
      <point x="-140" y="-228" type="line"/>
      <point x="-140" y="-228"/>
      <point x="-97" y="-260"/>
      <point x="-41" y="-260" type="curve" smooth="yes"/>
      <point x="26" y="-260"/>
      <point x="103" y="-222"/>
      <point x="130" y="-72" type="curve" smooth="yes"/>
      <point x="156" y="74"/>
      <point x="198" y="448"/>
    </contour>
  </outline>
</glyph>
<glyph name="Circumflexsmall" format="1">
  <advance width="472"/>
  <outline>
    <contour>
      <point x="253" y="720" type="line"/>
      <point x="115" y="589" type="line"/>
      <point x="140" y="558" type="line"/>
      <point x="251" y="641" type="line"/>
      <point x="335" y="556" type="line"/>
      <point x="366" y="581" type="line"/>
      <point x="270" y="720" type="line"/>
    </contour>
  </outline>
</glyph>
<glyph name="f-" format="1">
  <advance width="377"/>
  <outline>
    <contour>
      <point x="224" y="565" type="curve" smooth="yes"/>
      <point x="237" y="631"/>
      <point x="267" y="685"/>
      <point x="336" y="685" type="curve" smooth="yes"/>
      <point x="393" y="685"/>
      <point x="413" y="667"/>
      <point x="413" y="667" type="curve"/>
      <point x="436" y="722" type="line"/>
      <point x="436" y="722"/>
      <point x="400" y="750"/>
      <point x="335" y="750" type="curve" smooth="yes"/>
      <point x="263" y="750"/>
      <point x="169" y="713"/>
      <point x="144" y="566" type="curve" smooth="yes"/>
      <point x="123" y="441"/>
      <point x="77" y="57"/>
      <point x="55" y="-71" type="curve" smooth="yes"/>
      <point x="41" y="-151"/>
      <point x="11" y="-195"/>
      <point x="-46" y="-195" type="curve" smooth="yes"/>
      <point x="-84" y="-195"/>
      <point x="-110" y="-179"/>
      <point x="-110" y="-179" type="curve"/>
      <point x="-135" y="-228" type="line"/>
      <point x="-135" y="-228"/>
      <point x="-92" y="-260"/>
      <point x="-36" y="-260" type="curve" smooth="yes"/>
      <point x="31" y="-260"/>
      <point x="108" y="-222"/>
      <point x="135" y="-72" type="curve" smooth="yes"/>
      <point x="159" y="63"/>
      <point x="205" y="467"/>
    </contour>
    <contour>
      <point x="301" y="430" type="line"/>
      <point x="311" y="485" type="line"/>
      <point x="64" y="485" type="line"/>
      <point x="55" y="430" type="line"/>
    </contour>
  </outline>
</glyph>
<glyph name="ff-" format="1">
  <advance width="645"/>
  <outline>
    <contour>
      <point x="505" y="565" type="curve" smooth="yes"/>
      <point x="517" y="629"/>
      <point x="548" y="685"/>
      <point x="617" y="685" type="curve" smooth="yes"/>
      <point x="674" y="685"/>
      <point x="694" y="667"/>
      <point x="694" y="667" type="curve"/>
      <point x="717" y="722" type="line"/>
      <point x="717" y="722"/>
      <point x="681" y="750"/>
      <point x="616" y="750" type="curve" smooth="yes"/>
      <point x="544" y="750"/>
      <point x="452" y="717"/>
      <point x="425" y="566" type="curve" smooth="yes"/>
      <point x="403" y="441"/>
      <point x="358" y="57"/>
      <point x="336" y="-71" type="curve" smooth="yes"/>
      <point x="322" y="-151"/>
      <point x="297" y="-195"/>
      <point x="240" y="-195" type="curve" smooth="yes"/>
      <point x="202" y="-195"/>
      <point x="176" y="-179"/>
      <point x="176" y="-179" type="curve"/>
      <point x="151" y="-228" type="line"/>
      <point x="151" y="-228"/>
      <point x="194" y="-260"/>
      <point x="250" y="-260" type="curve" smooth="yes"/>
      <point x="317" y="-260"/>
      <point x="391" y="-222"/>
      <point x="416" y="-72" type="curve" smooth="yes"/>
      <point x="439" y="64"/>
      <point x="487" y="467"/>
    </contour>
    <contour>
      <point x="582" y="430" type="line"/>
      <point x="592" y="485" type="line"/>
      <point x="345" y="485" type="line"/>
      <point x="336" y="430" type="line"/>
    </contour>
    <contour>
      <point x="221" y="556" type="curve" smooth="yes"/>
      <point x="232" y="621"/>
      <point x="257" y="675"/>
      <point x="321" y="675" type="curve" smooth="yes"/>
      <point x="358" y="675"/>
      <point x="382" y="659"/>
      <point x="382" y="659" type="curve"/>
      <point x="409" y="709" type="line"/>
      <point x="409" y="709"/>
      <point x="375" y="740"/>
      <point x="320" y="740" type="curve" smooth="yes"/>
      <point x="252" y="740"/>
      <point x="166" y="709"/>
      <point x="141" y="557" type="curve" smooth="yes"/>
      <point x="120" y="427"/>
      <point x="79" y="67"/>
      <point x="55" y="-71" type="curve" smooth="yes"/>
      <point x="41" y="-151"/>
      <point x="11" y="-195"/>
      <point x="-46" y="-195" type="curve" smooth="yes"/>
      <point x="-84" y="-195"/>
      <point x="-110" y="-179"/>
      <point x="-110" y="-179" type="curve"/>
      <point x="-135" y="-228" type="line"/>
      <point x="-135" y="-228"/>
      <point x="-92" y="-260"/>
      <point x="-36" y="-260" type="curve" smooth="yes"/>
      <point x="31" y="-260"/>
      <point x="109" y="-222"/>
      <point x="135" y="-72" type="curve" smooth="yes"/>
      <point x="160" y="74"/>
      <point x="204" y="453"/>
    </contour>
    <contour>
      <point x="352" y="430" type="line"/>
      <point x="362" y="485" type="line"/>
      <point x="64" y="485" type="line"/>
      <point x="55" y="430" type="line"/>
    </contour>
  </outline>
</glyph>
<glyph name="fiveprop" format="1">
  <advance width="506"/>
  <outline>
    <contour>
      <point x="185" y="396" type="curve"/>
      <point x="249" y="630" type="line"/>
      <point x="488" y="630" type="line"/>
      <point x="499" y="700" type="line"/>
      <point x="190" y="700" type="line"/>
      <point x="93" y="329" type="line"/>
      <point x="159" y="324" type="line"/>
      <point x="159" y="324"/>
      <point x="194" y="370"/>
      <point x="270" y="370" type="curve" smooth="yes"/>
      <point x="337" y="370"/>
      <point x="375" y="327"/>
      <point x="375" y="245" type="curve" smooth="yes"/>
      <point x="375" y="147"/>
      <point x="323" y="55"/>
      <point x="224" y="55" type="curve" smooth="yes"/>
      <point x="152" y="55"/>
      <point x="109" y="103"/>
      <point x="105" y="170" type="curve"/>
      <point x="30" y="165" type="line"/>
      <point x="34" y="51"/>
      <point x="115" y="-15"/>
      <point x="221" y="-15" type="curve" smooth="yes"/>
      <point x="360" y="-15"/>
      <point x="460" y="112"/>
      <point x="460" y="247" type="curve" smooth="yes"/>
      <point x="460" y="368"/>
      <point x="389" y="435"/>
      <point x="306" y="435" type="curve" smooth="yes"/>
      <point x="259" y="435"/>
      <point x="220" y="421"/>
    </contour>
  </outline>
</glyph>
<glyph name="fourprop" format="1">
  <advance width="528"/>
  <outline>
    <contour>
      <point x="436" y="705" type="line"/>
      <point x="30" y="225" type="line"/>
      <point x="33" y="170" type="line"/>
      <point x="335" y="170" type="line"/>
      <point x="310" y="0" type="line"/>
      <point x="390" y="0" type="line"/>
      <point x="415" y="170" type="line"/>
      <point x="513" y="170" type="line"/>
      <point x="523" y="235" type="line"/>
      <point x="425" y="235" type="line"/>
      <point x="505" y="700" type="line"/>
    </contour>
    <contour>
      <point x="117" y="235" type="line"/>
      <point x="404" y="579" type="line"/>
      <point x="345" y="235" type="line"/>
    </contour>
  </outline>
</glyph>
<glyph name="g.alt" format="1">
  <advance width="491"/>
  <outline>
    <contour>
      <point x="420" y="272" type="curve" smooth="yes"/>
      <point x="427" y="295"/>
      <point x="430" y="317"/>
      <point x="431" y="343" type="curve" smooth="yes"/>
      <point x="433" y="395"/>
      <point x="394" y="428"/>
      <point x="376" y="433" type="curve"/>
      <point x="376" y="435" type="line"/>
      <point x="376" y="435"/>
      <point x="414" y="430"/>
      <point x="492" y="430" type="curve"/>
      <point x="495" y="441"/>
      <point x="499" y="466"/>
      <point x="501" y="480" type="curve"/>
      <point x="395" y="480"/>
      <point x="354" y="490"/>
      <point x="280" y="490" type="curve" smooth="yes"/>
      <point x="178" y="490"/>
      <point x="108" y="441"/>
      <point x="86" y="364" type="curve" smooth="yes"/>
      <point x="80" y="342"/>
      <point x="77" y="320"/>
      <point x="75" y="294" type="curve" smooth="yes"/>
      <point x="69" y="198"/>
      <point x="145" y="140"/>
      <point x="232" y="140" type="curve" smooth="yes"/>
      <point x="330" y="140"/>
      <point x="397" y="193"/>
    </contour>
    <contour>
      <point x="160" y="358" type="curve" smooth="yes"/>
      <point x="174" y="408"/>
      <point x="219" y="430"/>
      <point x="266" y="430" type="curve" smooth="yes"/>
      <point x="320" y="430"/>
      <point x="360" y="399"/>
      <point x="356" y="338" type="curve" smooth="yes"/>
      <point x="355" y="318"/>
      <point x="353" y="300"/>
      <point x="346" y="279" type="curve" smooth="yes"/>
      <point x="332" y="235"/>
      <point x="296" y="200"/>
      <point x="237" y="200" type="curve" smooth="yes"/>
      <point x="183" y="200"/>
      <point x="145" y="240"/>
      <point x="150" y="299" type="curve" smooth="yes"/>
      <point x="152" y="323"/>
      <point x="155" y="341"/>
    </contour>
    <contour>
      <point x="195" y="3" type="line"/>
      <point x="191" y="3"/>
      <point x="123" y="-13"/>
      <point x="41" y="-42" type="curve" smooth="yes"/>
      <point x="-6" y="-58"/>
      <point x="-25" y="-79"/>
      <point x="-25" y="-119" type="curve" smooth="yes"/>
      <point x="-25" y="-228"/>
      <point x="90" y="-270"/>
      <point x="192" y="-270" type="curve" smooth="yes"/>
      <point x="341" y="-270"/>
      <point x="432" y="-200"/>
      <point x="432" y="-112" type="curve" smooth="yes"/>
      <point x="432" y="-29"/>
      <point x="343" y="-2"/>
      <point x="262" y="34" type="curve" smooth="yes"/>
      <point x="205" y="59"/>
      <point x="156" y="76"/>
      <point x="156" y="109" type="curve" smooth="yes"/>
      <point x="156" y="127"/>
      <point x="173" y="140"/>
      <point x="198" y="144" type="curve"/>
      <point x="188" y="166" type="line"/>
      <point x="151" y="164"/>
      <point x="89" y="131"/>
      <point x="89" y="83" type="curve" smooth="yes"/>
      <point x="89" y="25"/>
      <point x="159" y="4"/>
      <point x="227" y="-25" type="curve" smooth="yes"/>
      <point x="296" y="-54"/>
      <point x="358" y="-74"/>
      <point x="358" y="-123" type="curve" smooth="yes"/>
      <point x="358" y="-173"/>
      <point x="294" y="-210"/>
      <point x="200" y="-210" type="curve" smooth="yes"/>
      <point x="126" y="-210"/>
      <point x="53" y="-181"/>
      <point x="53" y="-111" type="curve" smooth="yes"/>
      <point x="53" y="-90"/>
      <point x="64" y="-76"/>
      <point x="95" y="-65" type="curve" smooth="yes"/>
      <point x="242" y="-15" type="line"/>
    </contour>
  </outline>
</glyph>
<glyph name="nineprop" format="1">
  <advance width="559"/>
  <outline>
    <contour>
      <point x="113" y="450" type="curve" smooth="yes"/>
      <point x="113" y="328"/>
      <point x="195" y="262"/>
      <point x="285" y="262" type="curve" smooth="yes"/>
      <point x="338" y="262"/>
      <point x="363" y="295"/>
      <point x="363" y="295" type="curve"/>
      <point x="386" y="351" type="line"/>
      <point x="386" y="351"/>
      <point x="361" y="332"/>
      <point x="307" y="332" type="curve" smooth="yes"/>
      <point x="248" y="332"/>
      <point x="199" y="378"/>
      <point x="199" y="460" type="curve" smooth="yes"/>
      <point x="199" y="558"/>
      <point x="251" y="645"/>
      <point x="338" y="645" type="curve" smooth="yes"/>
      <point x="441" y="645"/>
      <point x="464" y="558"/>
      <point x="455" y="475" type="curve" smooth="yes"/>
      <point x="446" y="394"/>
      <point x="436" y="327"/>
      <point x="414" y="233" type="curve" smooth="yes"/>
      <point x="393" y="141"/>
      <point x="356" y="55"/>
      <point x="254" y="55" type="curve" smooth="yes"/>
      <point x="173" y="55"/>
      <point x="134" y="105"/>
      <point x="131" y="170" type="curve"/>
      <point x="56" y="165" type="line"/>
      <point x="55" y="60"/>
      <point x="134" y="-15"/>
      <point x="245" y="-15" type="curve" smooth="yes"/>
      <point x="403" y="-15"/>
      <point x="467" y="103"/>
      <point x="497" y="234" type="curve" smooth="yes"/>
      <point x="517" y="321"/>
      <point x="528" y="399"/>
      <point x="536" y="465" type="curve" smooth="yes"/>
      <point x="553" y="611"/>
      <point x="490" y="715"/>
      <point x="348" y="715" type="curve" smooth="yes"/>
      <point x="199" y="715"/>
      <point x="113" y="592"/>
    </contour>
  </outline>
</glyph>
<glyph name="oneprop" format="1">
  <advance width="385"/>
  <outline>
    <contour>
      <point x="226" y="617" type="line"/>
      <point x="137" y="68" type="line"/>
      <point x="39" y="60" type="line"/>
      <point x="30" y="0" type="line"/>
      <point x="305" y="0" type="line"/>
      <point x="314" y="60" type="line"/>
      <point x="222" y="68" type="line"/>
      <point x="325" y="700" type="line"/>
      <point x="294" y="704" type="line"/>
      <point x="136" y="664" type="line"/>
      <point x="136" y="614" type="line"/>
    </contour>
  </outline>
</glyph>
<glyph name="sevenprop" format="1">
  <advance width="480"/>
  <outline>
    <contour>
      <point x="525" y="700" type="line"/>
      <point x="106" y="700" type="line"/>
      <point x="94" y="630" type="line"/>
      <point x="437" y="630" type="line"/>
      <point x="55" y="0" type="line"/>
      <point x="140" y="0" type="line"/>
      <point x="535" y="651" type="line"/>
    </contour>
  </outline>
</glyph>
<glyph name="sixprop" format="1">
  <advance width="545"/>
  <outline>
    <contour>
      <point x="71" y="230" type="curve" smooth="yes"/>
      <point x="64" y="96"/>
      <point x="127" y="-15"/>
      <point x="262" y="-15" type="curve" smooth="yes"/>
      <point x="398" y="-15"/>
      <point x="498" y="94"/>
      <point x="498" y="247" type="curve" smooth="yes"/>
      <point x="498" y="354"/>
      <point x="432" y="425"/>
      <point x="339" y="425" type="curve" smooth="yes"/>
      <point x="281" y="425"/>
      <point x="245" y="396"/>
      <point x="245" y="396" type="curve"/>
      <point x="227" y="342" type="line"/>
      <point x="227" y="342"/>
      <point x="259" y="360"/>
      <point x="302" y="360" type="curve" smooth="yes"/>
      <point x="374" y="360"/>
      <point x="410" y="307"/>
      <point x="410" y="236" type="curve" smooth="yes"/>
      <point x="410" y="126"/>
      <point x="358" y="55"/>
      <point x="274" y="55" type="curve" smooth="yes"/>
      <point x="177" y="55"/>
      <point x="149" y="140"/>
      <point x="150" y="220" type="curve" smooth="yes"/>
      <point x="151" y="301"/>
      <point x="174" y="407"/>
      <point x="191" y="481" type="curve" smooth="yes"/>
      <point x="211" y="567"/>
      <point x="253" y="645"/>
      <point x="340" y="645" type="curve" smooth="yes"/>
      <point x="422" y="645"/>
      <point x="449" y="589"/>
      <point x="441" y="525" type="curve"/>
      <point x="517" y="530" type="line"/>
      <point x="535" y="643"/>
      <point x="461" y="715"/>
      <point x="348" y="715" type="curve" smooth="yes"/>
      <point x="216" y="715"/>
      <point x="140" y="612"/>
      <point x="109" y="486" type="curve" smooth="yes"/>
      <point x="91" y="412"/>
      <point x="74" y="296"/>
    </contour>
  </outline>
</glyph>
<glyph name="threeprop" format="1">
  <advance width="512"/>
  <outline>
    <contour>
      <point x="301" y="416" type="curve"/>
      <point x="517" y="640" type="line"/>
      <point x="507" y="700" type="line"/>
      <point x="135" y="700" type="line"/>
      <point x="124" y="630" type="line"/>
      <point x="415" y="630" type="line"/>
      <point x="204" y="402" type="line"/>
      <point x="208" y="363" type="line"/>
      <point x="313" y="369"/>
      <point x="376" y="324"/>
      <point x="376" y="227" type="curve" smooth="yes"/>
      <point x="376" y="124"/>
      <point x="325" y="55"/>
      <point x="235" y="55" type="curve" smooth="yes"/>
      <point x="161" y="55"/>
      <point x="116" y="98"/>
      <point x="110" y="170" type="curve"/>
      <point x="35" y="165" type="line"/>
      <point x="38" y="53"/>
      <point x="120" y="-15"/>
      <point x="225" y="-15" type="curve" smooth="yes"/>
      <point x="362" y="-15"/>
      <point x="461" y="86"/>
      <point x="461" y="227" type="curve" smooth="yes"/>
      <point x="461" y="331"/>
      <point x="396" y="409"/>
    </contour>
  </outline>
</glyph>
<glyph name="tt" format="1">
  <advance width="597"/>
  <outline>
    <contour>
      <point x="272" y="55" type="line"/>
      <point x="250" y="51"/>
      <point x="226" y="49"/>
      <point x="204" y="49" type="curve" smooth="yes"/>
      <point x="160" y="49"/>
      <point x="138" y="70"/>
      <point x="149" y="140" type="curve" smooth="yes"/>
      <point x="195" y="430" type="line"/>
      <point x="344" y="430" type="line"/>
      <point x="353" y="485" type="line"/>
      <point x="204" y="485" type="line"/>
      <point x="226" y="625" type="line"/>
      <point x="142" y="600" type="line"/>
      <point x="124" y="485" type="line"/>
      <point x="54" y="485" type="line"/>
      <point x="45" y="430" type="line"/>
      <point x="115" y="430" type="line"/>
      <point x="69" y="140" type="line" smooth="yes"/>
      <point x="52" y="32"/>
      <point x="108" y="-15"/>
      <point x="179" y="-15" type="curve" smooth="yes"/>
      <point x="239" y="-15"/>
      <point x="264" y="0"/>
      <point x="264" y="0" type="curve"/>
    </contour>
    <component base="t" xOffset="289"/>
  </outline>
</glyph>
<glyph name="y.alt" format="1">
  <advance width="428"/>
  <outline>
    <contour>
      <point x="190" y="98" type="line"/>
      <point x="179" y="94" type="line"/>
      <point x="15" y="-250" type="line"/>
      <point x="97" y="-250" type="line"/>
      <point x="438" y="485" type="line"/>
      <point x="357" y="485" type="line"/>
    </contour>
    <contour>
      <point x="191" y="47" type="line"/>
      <point x="138" y="485" type="line"/>
      <point x="57" y="485" type="line"/>
      <point x="132" y="-33" type="line"/>
    </contour>
  </outline>
</glyph>
<glyph name="zeroliningslash" format="1">
  <advance width="520"/>
  <outline>
    <contour>
      <point x="118" y="84" type="line"/>
      <point x="433" y="520" type="line"/>
      <point x="433" y="520"/>
      <point x="417" y="577"/>
      <point x="416" y="578" type="curve"/>
      <point x="102" y="135" type="line"/>
    </contour>
    <component base="zeroprop" xOffset="-49"/>
  </outline>
</glyph>
<glyph name="zeroprop" format="1">
  <advance width="567"/>
  <outline>
    <contour>
      <point x="72" y="197" type="curve" smooth="yes"/>
      <point x="78" y="272"/>
      <point x="110" y="446"/>
      <point x="127" y="518" type="curve" smooth="yes"/>
      <point x="157" y="644"/>
      <point x="244" y="715"/>
      <point x="364" y="715" type="curve" smooth="yes"/>
      <point x="495" y="715"/>
      <point x="555" y="630"/>
      <point x="545" y="509" type="curve" smooth="yes"/>
      <point x="539" y="437"/>
      <point x="506" y="263"/>
      <point x="490" y="188" type="curve" smooth="yes"/>
      <point x="463" y="60"/>
      <point x="378" y="-15"/>
      <point x="255" y="-15" type="curve" smooth="yes"/>
      <point x="127" y="-15"/>
      <point x="62" y="74"/>
    </contour>
    <contour>
      <point x="264" y="55" type="curve" smooth="yes"/>
      <point x="337" y="55"/>
      <point x="385" y="102"/>
      <point x="405" y="188" type="curve" smooth="yes"/>
      <point x="422" y="261"/>
      <point x="454" y="442"/>
      <point x="460" y="509" type="curve" smooth="yes"/>
      <point x="467" y="586"/>
      <point x="432" y="645"/>
      <point x="356" y="645" type="curve" smooth="yes"/>
      <point x="282" y="645"/>
      <point x="231" y="602"/>
      <point x="212" y="518" type="curve" smooth="yes"/>
      <point x="197" y="451"/>
      <point x="163" y="269"/>
      <point x="157" y="196" type="curve" smooth="yes"/>
      <point x="150" y="113"/>
      <point x="194" y="55"/>
    </contour>
  </outline>
</glyph>
<glyph name="zeroslash" format="1">
  <advance width="495"/>
  <outline>
    <contour>
      <point x="136" y="69" type="line"/>
      <point x="117" y="120" type="line"/>
      <point x="436" y="471" type="line"/>
      <point x="436" y="471"/>
      <point x="453" y="417"/>
      <point x="453" y="417" type="curve"/>
    </contour>
    <component base="zero" xOffset="5"/>
  </outline>
</glyph>
